<?xml version="1.0" encoding="utf-8" standalone="no"?>
<!DOCTYPE svg PUBLIC "-//W3C//DTD SVG 1.1//EN"
  "http://www.w3.org/Graphics/SVG/1.1/DTD/svg11.dtd">
<!-- Created with matplotlib (https://matplotlib.org/) -->
<svg height="345.6pt" version="1.1" viewBox="0 0 460.8 345.6" width="460.8pt" xmlns="http://www.w3.org/2000/svg" xmlns:xlink="http://www.w3.org/1999/xlink">
 <defs>
  <style type="text/css">
*{stroke-linecap:butt;stroke-linejoin:round;}
  </style>
 </defs>
 <g id="figure_1">
  <g id="patch_1">
   <path d="M 0 345.6 
L 460.8 345.6 
L 460.8 0 
L 0 0 
z
" style="fill:#ffffff;"/>
  </g>
  <g id="axes_1">
   <g id="patch_2">
    <path d="M 52.94 136.24 
L 447.48 136.24 
L 447.48 26.88 
L 52.94 26.88 
z
" style="fill:#ffffff;"/>
   </g>
   <g id="matplotlib.axis_1">
    <g id="xtick_1">
     <g id="line2d_1">
      <defs>
       <path d="M 0 0 
L 0 3.5 
" id="m5b5b11bbb9" style="stroke:#000000;stroke-width:0.8;"/>
      </defs>
      <g>
       <use style="stroke:#000000;stroke-width:0.8;" x="70.873636" xlink:href="#m5b5b11bbb9" y="136.24"/>
      </g>
     </g>
     <g id="text_1">
      <!-- 0 -->
      <defs>
       <path d="M 31.78125 66.40625 
Q 24.171875 66.40625 20.328125 58.90625 
Q 16.5 51.421875 16.5 36.375 
Q 16.5 21.390625 20.328125 13.890625 
Q 24.171875 6.390625 31.78125 6.390625 
Q 39.453125 6.390625 43.28125 13.890625 
Q 47.125 21.390625 47.125 36.375 
Q 47.125 51.421875 43.28125 58.90625 
Q 39.453125 66.40625 31.78125 66.40625 
z
M 31.78125 74.21875 
Q 44.046875 74.21875 50.515625 64.515625 
Q 56.984375 54.828125 56.984375 36.375 
Q 56.984375 17.96875 50.515625 8.265625 
Q 44.046875 -1.421875 31.78125 -1.421875 
Q 19.53125 -1.421875 13.0625 8.265625 
Q 6.59375 17.96875 6.59375 36.375 
Q 6.59375 54.828125 13.0625 64.515625 
Q 19.53125 74.21875 31.78125 74.21875 
z
" id="DejaVuSans-48"/>
      </defs>
      <g transform="translate(67.692386 150.838437)scale(0.1 -0.1)">
       <use xlink:href="#DejaVuSans-48"/>
      </g>
     </g>
    </g>
    <g id="xtick_2">
     <g id="line2d_2">
      <g>
       <use style="stroke:#000000;stroke-width:0.8;" x="157.930124" xlink:href="#m5b5b11bbb9" y="136.24"/>
      </g>
     </g>
     <g id="text_2">
      <!-- 200 -->
      <defs>
       <path d="M 19.1875 8.296875 
L 53.609375 8.296875 
L 53.609375 0 
L 7.328125 0 
L 7.328125 8.296875 
Q 12.9375 14.109375 22.625 23.890625 
Q 32.328125 33.6875 34.8125 36.53125 
Q 39.546875 41.84375 41.421875 45.53125 
Q 43.3125 49.21875 43.3125 52.78125 
Q 43.3125 58.59375 39.234375 62.25 
Q 35.15625 65.921875 28.609375 65.921875 
Q 23.96875 65.921875 18.8125 64.3125 
Q 13.671875 62.703125 7.8125 59.421875 
L 7.8125 69.390625 
Q 13.765625 71.78125 18.9375 73 
Q 24.125 74.21875 28.421875 74.21875 
Q 39.75 74.21875 46.484375 68.546875 
Q 53.21875 62.890625 53.21875 53.421875 
Q 53.21875 48.921875 51.53125 44.890625 
Q 49.859375 40.875 45.40625 35.40625 
Q 44.1875 33.984375 37.640625 27.21875 
Q 31.109375 20.453125 19.1875 8.296875 
z
" id="DejaVuSans-50"/>
      </defs>
      <g transform="translate(148.386374 150.838437)scale(0.1 -0.1)">
       <use xlink:href="#DejaVuSans-50"/>
       <use x="63.623047" xlink:href="#DejaVuSans-48"/>
       <use x="127.246094" xlink:href="#DejaVuSans-48"/>
      </g>
     </g>
    </g>
    <g id="xtick_3">
     <g id="line2d_3">
      <g>
       <use style="stroke:#000000;stroke-width:0.8;" x="244.986611" xlink:href="#m5b5b11bbb9" y="136.24"/>
      </g>
     </g>
     <g id="text_3">
      <!-- 400 -->
      <defs>
       <path d="M 37.796875 64.3125 
L 12.890625 25.390625 
L 37.796875 25.390625 
z
M 35.203125 72.90625 
L 47.609375 72.90625 
L 47.609375 25.390625 
L 58.015625 25.390625 
L 58.015625 17.1875 
L 47.609375 17.1875 
L 47.609375 0 
L 37.796875 0 
L 37.796875 17.1875 
L 4.890625 17.1875 
L 4.890625 26.703125 
z
" id="DejaVuSans-52"/>
      </defs>
      <g transform="translate(235.442861 150.838437)scale(0.1 -0.1)">
       <use xlink:href="#DejaVuSans-52"/>
       <use x="63.623047" xlink:href="#DejaVuSans-48"/>
       <use x="127.246094" xlink:href="#DejaVuSans-48"/>
      </g>
     </g>
    </g>
    <g id="xtick_4">
     <g id="line2d_4">
      <g>
       <use style="stroke:#000000;stroke-width:0.8;" x="332.043098" xlink:href="#m5b5b11bbb9" y="136.24"/>
      </g>
     </g>
     <g id="text_4">
      <!-- 600 -->
      <defs>
       <path d="M 33.015625 40.375 
Q 26.375 40.375 22.484375 35.828125 
Q 18.609375 31.296875 18.609375 23.390625 
Q 18.609375 15.53125 22.484375 10.953125 
Q 26.375 6.390625 33.015625 6.390625 
Q 39.65625 6.390625 43.53125 10.953125 
Q 47.40625 15.53125 47.40625 23.390625 
Q 47.40625 31.296875 43.53125 35.828125 
Q 39.65625 40.375 33.015625 40.375 
z
M 52.59375 71.296875 
L 52.59375 62.3125 
Q 48.875 64.0625 45.09375 64.984375 
Q 41.3125 65.921875 37.59375 65.921875 
Q 27.828125 65.921875 22.671875 59.328125 
Q 17.53125 52.734375 16.796875 39.40625 
Q 19.671875 43.65625 24.015625 45.921875 
Q 28.375 48.1875 33.59375 48.1875 
Q 44.578125 48.1875 50.953125 41.515625 
Q 57.328125 34.859375 57.328125 23.390625 
Q 57.328125 12.15625 50.6875 5.359375 
Q 44.046875 -1.421875 33.015625 -1.421875 
Q 20.359375 -1.421875 13.671875 8.265625 
Q 6.984375 17.96875 6.984375 36.375 
Q 6.984375 53.65625 15.1875 63.9375 
Q 23.390625 74.21875 37.203125 74.21875 
Q 40.921875 74.21875 44.703125 73.484375 
Q 48.484375 72.75 52.59375 71.296875 
z
" id="DejaVuSans-54"/>
      </defs>
      <g transform="translate(322.499348 150.838437)scale(0.1 -0.1)">
       <use xlink:href="#DejaVuSans-54"/>
       <use x="63.623047" xlink:href="#DejaVuSans-48"/>
       <use x="127.246094" xlink:href="#DejaVuSans-48"/>
      </g>
     </g>
    </g>
    <g id="xtick_5">
     <g id="line2d_5">
      <g>
       <use style="stroke:#000000;stroke-width:0.8;" x="419.099585" xlink:href="#m5b5b11bbb9" y="136.24"/>
      </g>
     </g>
     <g id="text_5">
      <!-- 800 -->
      <defs>
       <path d="M 31.78125 34.625 
Q 24.75 34.625 20.71875 30.859375 
Q 16.703125 27.09375 16.703125 20.515625 
Q 16.703125 13.921875 20.71875 10.15625 
Q 24.75 6.390625 31.78125 6.390625 
Q 38.8125 6.390625 42.859375 10.171875 
Q 46.921875 13.96875 46.921875 20.515625 
Q 46.921875 27.09375 42.890625 30.859375 
Q 38.875 34.625 31.78125 34.625 
z
M 21.921875 38.8125 
Q 15.578125 40.375 12.03125 44.71875 
Q 8.5 49.078125 8.5 55.328125 
Q 8.5 64.0625 14.71875 69.140625 
Q 20.953125 74.21875 31.78125 74.21875 
Q 42.671875 74.21875 48.875 69.140625 
Q 55.078125 64.0625 55.078125 55.328125 
Q 55.078125 49.078125 51.53125 44.71875 
Q 48 40.375 41.703125 38.8125 
Q 48.828125 37.15625 52.796875 32.3125 
Q 56.78125 27.484375 56.78125 20.515625 
Q 56.78125 9.90625 50.3125 4.234375 
Q 43.84375 -1.421875 31.78125 -1.421875 
Q 19.734375 -1.421875 13.25 4.234375 
Q 6.78125 9.90625 6.78125 20.515625 
Q 6.78125 27.484375 10.78125 32.3125 
Q 14.796875 37.15625 21.921875 38.8125 
z
M 18.3125 54.390625 
Q 18.3125 48.734375 21.84375 45.5625 
Q 25.390625 42.390625 31.78125 42.390625 
Q 38.140625 42.390625 41.71875 45.5625 
Q 45.3125 48.734375 45.3125 54.390625 
Q 45.3125 60.0625 41.71875 63.234375 
Q 38.140625 66.40625 31.78125 66.40625 
Q 25.390625 66.40625 21.84375 63.234375 
Q 18.3125 60.0625 18.3125 54.390625 
z
" id="DejaVuSans-56"/>
      </defs>
      <g transform="translate(409.555835 150.838437)scale(0.1 -0.1)">
       <use xlink:href="#DejaVuSans-56"/>
       <use x="63.623047" xlink:href="#DejaVuSans-48"/>
       <use x="127.246094" xlink:href="#DejaVuSans-48"/>
      </g>
     </g>
    </g>
    <g id="text_6">
     <!-- [day time] -->
     <defs>
      <path d="M 8.59375 75.984375 
L 29.296875 75.984375 
L 29.296875 69 
L 17.578125 69 
L 17.578125 -6.203125 
L 29.296875 -6.203125 
L 29.296875 -13.1875 
L 8.59375 -13.1875 
z
" id="DejaVuSans-91"/>
      <path d="M 45.40625 46.390625 
L 45.40625 75.984375 
L 54.390625 75.984375 
L 54.390625 0 
L 45.40625 0 
L 45.40625 8.203125 
Q 42.578125 3.328125 38.25 0.953125 
Q 33.9375 -1.421875 27.875 -1.421875 
Q 17.96875 -1.421875 11.734375 6.484375 
Q 5.515625 14.40625 5.515625 27.296875 
Q 5.515625 40.1875 11.734375 48.09375 
Q 17.96875 56 27.875 56 
Q 33.9375 56 38.25 53.625 
Q 42.578125 51.265625 45.40625 46.390625 
z
M 14.796875 27.296875 
Q 14.796875 17.390625 18.875 11.75 
Q 22.953125 6.109375 30.078125 6.109375 
Q 37.203125 6.109375 41.296875 11.75 
Q 45.40625 17.390625 45.40625 27.296875 
Q 45.40625 37.203125 41.296875 42.84375 
Q 37.203125 48.484375 30.078125 48.484375 
Q 22.953125 48.484375 18.875 42.84375 
Q 14.796875 37.203125 14.796875 27.296875 
z
" id="DejaVuSans-100"/>
      <path d="M 34.28125 27.484375 
Q 23.390625 27.484375 19.1875 25 
Q 14.984375 22.515625 14.984375 16.5 
Q 14.984375 11.71875 18.140625 8.90625 
Q 21.296875 6.109375 26.703125 6.109375 
Q 34.1875 6.109375 38.703125 11.40625 
Q 43.21875 16.703125 43.21875 25.484375 
L 43.21875 27.484375 
z
M 52.203125 31.203125 
L 52.203125 0 
L 43.21875 0 
L 43.21875 8.296875 
Q 40.140625 3.328125 35.546875 0.953125 
Q 30.953125 -1.421875 24.3125 -1.421875 
Q 15.921875 -1.421875 10.953125 3.296875 
Q 6 8.015625 6 15.921875 
Q 6 25.140625 12.171875 29.828125 
Q 18.359375 34.515625 30.609375 34.515625 
L 43.21875 34.515625 
L 43.21875 35.40625 
Q 43.21875 41.609375 39.140625 45 
Q 35.0625 48.390625 27.6875 48.390625 
Q 23 48.390625 18.546875 47.265625 
Q 14.109375 46.140625 10.015625 43.890625 
L 10.015625 52.203125 
Q 14.9375 54.109375 19.578125 55.046875 
Q 24.21875 56 28.609375 56 
Q 40.484375 56 46.34375 49.84375 
Q 52.203125 43.703125 52.203125 31.203125 
z
" id="DejaVuSans-97"/>
      <path d="M 32.171875 -5.078125 
Q 28.375 -14.84375 24.75 -17.8125 
Q 21.140625 -20.796875 15.09375 -20.796875 
L 7.90625 -20.796875 
L 7.90625 -13.28125 
L 13.1875 -13.28125 
Q 16.890625 -13.28125 18.9375 -11.515625 
Q 21 -9.765625 23.484375 -3.21875 
L 25.09375 0.875 
L 2.984375 54.6875 
L 12.5 54.6875 
L 29.59375 11.921875 
L 46.6875 54.6875 
L 56.203125 54.6875 
z
" id="DejaVuSans-121"/>
      <path id="DejaVuSans-32"/>
      <path d="M 18.3125 70.21875 
L 18.3125 54.6875 
L 36.8125 54.6875 
L 36.8125 47.703125 
L 18.3125 47.703125 
L 18.3125 18.015625 
Q 18.3125 11.328125 20.140625 9.421875 
Q 21.96875 7.515625 27.59375 7.515625 
L 36.8125 7.515625 
L 36.8125 0 
L 27.59375 0 
Q 17.1875 0 13.234375 3.875 
Q 9.28125 7.765625 9.28125 18.015625 
L 9.28125 47.703125 
L 2.6875 47.703125 
L 2.6875 54.6875 
L 9.28125 54.6875 
L 9.28125 70.21875 
z
" id="DejaVuSans-116"/>
      <path d="M 9.421875 54.6875 
L 18.40625 54.6875 
L 18.40625 0 
L 9.421875 0 
z
M 9.421875 75.984375 
L 18.40625 75.984375 
L 18.40625 64.59375 
L 9.421875 64.59375 
z
" id="DejaVuSans-105"/>
      <path d="M 52 44.1875 
Q 55.375 50.25 60.0625 53.125 
Q 64.75 56 71.09375 56 
Q 79.640625 56 84.28125 50.015625 
Q 88.921875 44.046875 88.921875 33.015625 
L 88.921875 0 
L 79.890625 0 
L 79.890625 32.71875 
Q 79.890625 40.578125 77.09375 44.375 
Q 74.3125 48.1875 68.609375 48.1875 
Q 61.625 48.1875 57.5625 43.546875 
Q 53.515625 38.921875 53.515625 30.90625 
L 53.515625 0 
L 44.484375 0 
L 44.484375 32.71875 
Q 44.484375 40.625 41.703125 44.40625 
Q 38.921875 48.1875 33.109375 48.1875 
Q 26.21875 48.1875 22.15625 43.53125 
Q 18.109375 38.875 18.109375 30.90625 
L 18.109375 0 
L 9.078125 0 
L 9.078125 54.6875 
L 18.109375 54.6875 
L 18.109375 46.1875 
Q 21.1875 51.21875 25.484375 53.609375 
Q 29.78125 56 35.6875 56 
Q 41.65625 56 45.828125 52.96875 
Q 50 49.953125 52 44.1875 
z
" id="DejaVuSans-109"/>
      <path d="M 56.203125 29.59375 
L 56.203125 25.203125 
L 14.890625 25.203125 
Q 15.484375 15.921875 20.484375 11.0625 
Q 25.484375 6.203125 34.421875 6.203125 
Q 39.59375 6.203125 44.453125 7.46875 
Q 49.3125 8.734375 54.109375 11.28125 
L 54.109375 2.78125 
Q 49.265625 0.734375 44.1875 -0.34375 
Q 39.109375 -1.421875 33.890625 -1.421875 
Q 20.796875 -1.421875 13.15625 6.1875 
Q 5.515625 13.8125 5.515625 26.8125 
Q 5.515625 40.234375 12.765625 48.109375 
Q 20.015625 56 32.328125 56 
Q 43.359375 56 49.78125 48.890625 
Q 56.203125 41.796875 56.203125 29.59375 
z
M 47.21875 32.234375 
Q 47.125 39.59375 43.09375 43.984375 
Q 39.0625 48.390625 32.421875 48.390625 
Q 24.90625 48.390625 20.390625 44.140625 
Q 15.875 39.890625 15.1875 32.171875 
z
" id="DejaVuSans-101"/>
      <path d="M 30.421875 75.984375 
L 30.421875 -13.1875 
L 9.71875 -13.1875 
L 9.71875 -6.203125 
L 21.390625 -6.203125 
L 21.390625 69 
L 9.71875 69 
L 9.71875 75.984375 
z
" id="DejaVuSans-93"/>
     </defs>
     <g transform="translate(224.225625 164.516562)scale(0.1 -0.1)">
      <use xlink:href="#DejaVuSans-91"/>
      <use x="39.013672" xlink:href="#DejaVuSans-100"/>
      <use x="102.490234" xlink:href="#DejaVuSans-97"/>
      <use x="163.769531" xlink:href="#DejaVuSans-121"/>
      <use x="222.949219" xlink:href="#DejaVuSans-32"/>
      <use x="254.736328" xlink:href="#DejaVuSans-116"/>
      <use x="293.945312" xlink:href="#DejaVuSans-105"/>
      <use x="321.728516" xlink:href="#DejaVuSans-109"/>
      <use x="419.140625" xlink:href="#DejaVuSans-101"/>
      <use x="480.664062" xlink:href="#DejaVuSans-93"/>
     </g>
    </g>
   </g>
   <g id="matplotlib.axis_2">
    <g id="ytick_1">
     <g id="line2d_6">
      <defs>
       <path d="M 0 0 
L -3.5 0 
" id="mdeefbb992e" style="stroke:#000000;stroke-width:0.8;"/>
      </defs>
      <g>
       <use style="stroke:#000000;stroke-width:0.8;" x="52.94" xlink:href="#mdeefbb992e" y="128.423518"/>
      </g>
     </g>
     <g id="text_7">
      <!-- 0 -->
      <g transform="translate(39.5775 132.222737)scale(0.1 -0.1)">
       <use xlink:href="#DejaVuSans-48"/>
      </g>
     </g>
    </g>
    <g id="ytick_2">
     <g id="line2d_7">
      <g>
       <use style="stroke:#000000;stroke-width:0.8;" x="52.94" xlink:href="#mdeefbb992e" y="96.563224"/>
      </g>
     </g>
     <g id="text_8">
      <!-- 100 -->
      <defs>
       <path d="M 12.40625 8.296875 
L 28.515625 8.296875 
L 28.515625 63.921875 
L 10.984375 60.40625 
L 10.984375 69.390625 
L 28.421875 72.90625 
L 38.28125 72.90625 
L 38.28125 8.296875 
L 54.390625 8.296875 
L 54.390625 0 
L 12.40625 0 
z
" id="DejaVuSans-49"/>
      </defs>
      <g transform="translate(26.8525 100.362443)scale(0.1 -0.1)">
       <use xlink:href="#DejaVuSans-49"/>
       <use x="63.623047" xlink:href="#DejaVuSans-48"/>
       <use x="127.246094" xlink:href="#DejaVuSans-48"/>
      </g>
     </g>
    </g>
    <g id="ytick_3">
     <g id="line2d_8">
      <g>
       <use style="stroke:#000000;stroke-width:0.8;" x="52.94" xlink:href="#mdeefbb992e" y="64.70293"/>
      </g>
     </g>
     <g id="text_9">
      <!-- 200 -->
      <g transform="translate(26.8525 68.502148)scale(0.1 -0.1)">
       <use xlink:href="#DejaVuSans-50"/>
       <use x="63.623047" xlink:href="#DejaVuSans-48"/>
       <use x="127.246094" xlink:href="#DejaVuSans-48"/>
      </g>
     </g>
    </g>
    <g id="ytick_4">
     <g id="line2d_9">
      <g>
       <use style="stroke:#000000;stroke-width:0.8;" x="52.94" xlink:href="#mdeefbb992e" y="32.842635"/>
      </g>
     </g>
     <g id="text_10">
      <!-- 300 -->
      <defs>
       <path d="M 40.578125 39.3125 
Q 47.65625 37.796875 51.625 33 
Q 55.609375 28.21875 55.609375 21.1875 
Q 55.609375 10.40625 48.1875 4.484375 
Q 40.765625 -1.421875 27.09375 -1.421875 
Q 22.515625 -1.421875 17.65625 -0.515625 
Q 12.796875 0.390625 7.625 2.203125 
L 7.625 11.71875 
Q 11.71875 9.328125 16.59375 8.109375 
Q 21.484375 6.890625 26.8125 6.890625 
Q 36.078125 6.890625 40.9375 10.546875 
Q 45.796875 14.203125 45.796875 21.1875 
Q 45.796875 27.640625 41.28125 31.265625 
Q 36.765625 34.90625 28.71875 34.90625 
L 20.21875 34.90625 
L 20.21875 43.015625 
L 29.109375 43.015625 
Q 36.375 43.015625 40.234375 45.921875 
Q 44.09375 48.828125 44.09375 54.296875 
Q 44.09375 59.90625 40.109375 62.90625 
Q 36.140625 65.921875 28.71875 65.921875 
Q 24.65625 65.921875 20.015625 65.03125 
Q 15.375 64.15625 9.8125 62.3125 
L 9.8125 71.09375 
Q 15.4375 72.65625 20.34375 73.4375 
Q 25.25 74.21875 29.59375 74.21875 
Q 40.828125 74.21875 47.359375 69.109375 
Q 53.90625 64.015625 53.90625 55.328125 
Q 53.90625 49.265625 50.4375 45.09375 
Q 46.96875 40.921875 40.578125 39.3125 
z
" id="DejaVuSans-51"/>
      </defs>
      <g transform="translate(26.8525 36.641854)scale(0.1 -0.1)">
       <use xlink:href="#DejaVuSans-51"/>
       <use x="63.623047" xlink:href="#DejaVuSans-48"/>
       <use x="127.246094" xlink:href="#DejaVuSans-48"/>
      </g>
     </g>
    </g>
    <g id="text_11">
     <!-- [Cumulative return] -->
     <defs>
      <path d="M 64.40625 67.28125 
L 64.40625 56.890625 
Q 59.421875 61.53125 53.78125 63.8125 
Q 48.140625 66.109375 41.796875 66.109375 
Q 29.296875 66.109375 22.65625 58.46875 
Q 16.015625 50.828125 16.015625 36.375 
Q 16.015625 21.96875 22.65625 14.328125 
Q 29.296875 6.6875 41.796875 6.6875 
Q 48.140625 6.6875 53.78125 8.984375 
Q 59.421875 11.28125 64.40625 15.921875 
L 64.40625 5.609375 
Q 59.234375 2.09375 53.4375 0.328125 
Q 47.65625 -1.421875 41.21875 -1.421875 
Q 24.65625 -1.421875 15.125 8.703125 
Q 5.609375 18.84375 5.609375 36.375 
Q 5.609375 53.953125 15.125 64.078125 
Q 24.65625 74.21875 41.21875 74.21875 
Q 47.75 74.21875 53.53125 72.484375 
Q 59.328125 70.75 64.40625 67.28125 
z
" id="DejaVuSans-67"/>
      <path d="M 8.5 21.578125 
L 8.5 54.6875 
L 17.484375 54.6875 
L 17.484375 21.921875 
Q 17.484375 14.15625 20.5 10.265625 
Q 23.53125 6.390625 29.59375 6.390625 
Q 36.859375 6.390625 41.078125 11.03125 
Q 45.3125 15.671875 45.3125 23.6875 
L 45.3125 54.6875 
L 54.296875 54.6875 
L 54.296875 0 
L 45.3125 0 
L 45.3125 8.40625 
Q 42.046875 3.421875 37.71875 1 
Q 33.40625 -1.421875 27.6875 -1.421875 
Q 18.265625 -1.421875 13.375 4.4375 
Q 8.5 10.296875 8.5 21.578125 
z
M 31.109375 56 
z
" id="DejaVuSans-117"/>
      <path d="M 9.421875 75.984375 
L 18.40625 75.984375 
L 18.40625 0 
L 9.421875 0 
z
" id="DejaVuSans-108"/>
      <path d="M 2.984375 54.6875 
L 12.5 54.6875 
L 29.59375 8.796875 
L 46.6875 54.6875 
L 56.203125 54.6875 
L 35.6875 0 
L 23.484375 0 
z
" id="DejaVuSans-118"/>
      <path d="M 41.109375 46.296875 
Q 39.59375 47.171875 37.8125 47.578125 
Q 36.03125 48 33.890625 48 
Q 26.265625 48 22.1875 43.046875 
Q 18.109375 38.09375 18.109375 28.8125 
L 18.109375 0 
L 9.078125 0 
L 9.078125 54.6875 
L 18.109375 54.6875 
L 18.109375 46.1875 
Q 20.953125 51.171875 25.484375 53.578125 
Q 30.03125 56 36.53125 56 
Q 37.453125 56 38.578125 55.875 
Q 39.703125 55.765625 41.0625 55.515625 
z
" id="DejaVuSans-114"/>
      <path d="M 54.890625 33.015625 
L 54.890625 0 
L 45.90625 0 
L 45.90625 32.71875 
Q 45.90625 40.484375 42.875 44.328125 
Q 39.84375 48.1875 33.796875 48.1875 
Q 26.515625 48.1875 22.3125 43.546875 
Q 18.109375 38.921875 18.109375 30.90625 
L 18.109375 0 
L 9.078125 0 
L 9.078125 54.6875 
L 18.109375 54.6875 
L 18.109375 46.1875 
Q 21.34375 51.125 25.703125 53.5625 
Q 30.078125 56 35.796875 56 
Q 45.21875 56 50.046875 50.171875 
Q 54.890625 44.34375 54.890625 33.015625 
z
" id="DejaVuSans-110"/>
     </defs>
     <g transform="translate(20.772813 131.070938)rotate(-90)scale(0.1 -0.1)">
      <use xlink:href="#DejaVuSans-91"/>
      <use x="39.013672" xlink:href="#DejaVuSans-67"/>
      <use x="108.837891" xlink:href="#DejaVuSans-117"/>
      <use x="172.216797" xlink:href="#DejaVuSans-109"/>
      <use x="269.628906" xlink:href="#DejaVuSans-117"/>
      <use x="333.007812" xlink:href="#DejaVuSans-108"/>
      <use x="360.791016" xlink:href="#DejaVuSans-97"/>
      <use x="422.070312" xlink:href="#DejaVuSans-116"/>
      <use x="461.279297" xlink:href="#DejaVuSans-105"/>
      <use x="489.0625" xlink:href="#DejaVuSans-118"/>
      <use x="548.242188" xlink:href="#DejaVuSans-101"/>
      <use x="609.765625" xlink:href="#DejaVuSans-32"/>
      <use x="641.552734" xlink:href="#DejaVuSans-114"/>
      <use x="682.634766" xlink:href="#DejaVuSans-101"/>
      <use x="744.158203" xlink:href="#DejaVuSans-116"/>
      <use x="783.367188" xlink:href="#DejaVuSans-117"/>
      <use x="846.746094" xlink:href="#DejaVuSans-114"/>
      <use x="887.84375" xlink:href="#DejaVuSans-110"/>
      <use x="951.222656" xlink:href="#DejaVuSans-93"/>
     </g>
    </g>
   </g>
   <g id="line2d_10">
    <path clip-path="url(#p0261fdcc0f)" d="M 70.873636 128.425079 
L 71.308919 128.426665 
L 71.744201 127.92802 
L 72.179484 127.929583 
L 72.614766 128.082505 
L 73.485331 128.085671 
L 73.920613 127.966029 
L 74.791178 127.972646 
L 75.226461 128.552955 
L 75.661743 128.554533 
L 76.097026 128.109254 
L 76.96759 128.11235 
L 77.402873 129.071417 
L 77.838155 128.438206 
L 78.273438 128.439753 
L 78.70872 128.745375 
L 79.144003 128.746907 
L 79.579285 129.021725 
L 81.320415 128.969243 
L 81.755697 130.51151 
L 82.19098 131.267648 
L 82.626262 131.269091 
L 83.061545 129.877974 
L 83.496827 129.879477 
L 83.932109 128.408464 
L 85.237957 128.45358 
L 85.673239 126.978875 
L 86.543804 126.982186 
L 86.979086 127.368042 
L 87.849651 127.327675 
L 88.284934 125.77729 
L 89.155499 125.88 
L 89.590781 124.307087 
L 90.896628 124.312412 
L 91.331911 123.674649 
L 91.767193 123.367066 
L 92.637758 123.40675 
L 93.073041 121.635653 
L 94.378888 121.641372 
L 94.81417 121.261624 
L 95.249453 121.263517 
L 95.684735 120.701202 
L 96.120018 121.386572 
L 96.5553 122.359335 
L 97.425865 122.363078 
L 97.861147 121.117303 
L 98.29643 119.257284 
L 99.166995 119.261329 
L 99.602277 117.238878 
L 100.03756 117.240859 
L 100.472842 115.1393 
L 100.908124 114.666399 
L 102.213972 114.673076 
L 102.649254 112.508041 
L 103.084537 112.510374 
L 103.519819 111.031001 
L 103.955102 112.459119 
L 104.390384 110.036169 
L 105.696231 110.043528 
L 106.131514 110.470052 
L 106.566796 110.557162 
L 107.002079 112.090858 
L 107.872643 112.095452 
L 108.307926 109.906441 
L 109.178491 109.911432 
L 109.613773 108.567063 
L 110.049056 105.552541 
L 110.484338 105.555199 
L 110.91962 102.90068 
L 111.354903 103.37331 
L 112.225468 103.378929 
L 112.66075 100.652372 
L 113.096033 100.655206 
L 113.531315 97.85991 
L 114.40188 97.866022 
L 114.837162 94.851046 
L 115.272445 94.603689 
L 115.707727 93.293637 
L 117.013575 93.303482 
L 117.448857 90.109705 
L 117.884139 92.353397 
L 119.189987 92.3081 
L 119.625269 92.311427 
L 120.060552 89.0535 
L 120.495834 89.056892 
L 120.931117 89.325005 
L 121.366399 90.593574 
L 123.107529 90.576593 
L 123.542811 89.978819 
L 124.413376 89.983373 
L 124.848658 91.497113 
L 125.283941 93.56019 
L 125.719223 92.841847 
L 127.460353 92.853191 
L 127.895635 93.080782 
L 128.330918 92.287357 
L 128.7662 89.963631 
L 130.072048 89.974001 
L 130.50733 85.517307 
L 130.942613 85.52098 
L 131.377895 82.074536 
L 132.24846 82.176646 
L 132.683742 82.180538 
L 133.119025 83.286542 
L 133.554307 83.26106 
L 133.98959 82.954562 
L 135.295437 82.965929 
L 135.730719 83.524442 
L 136.166002 84.436745 
L 137.036567 84.444087 
L 137.471849 85.443436 
L 137.907132 85.447021 
L 138.342414 86.101155 
L 138.777696 86.110001 
L 139.212979 89.366498 
L 139.648261 89.369864 
L 140.083544 91.504245 
L 140.518826 91.507613 
L 140.954109 88.182072 
L 141.824673 88.188913 
L 142.259956 88.81226 
L 142.695238 88.815642 
L 143.130521 87.352491 
L 143.565803 90.502369 
L 144.001086 90.505838 
L 144.436368 89.430653 
L 145.306933 89.437653 
L 145.742215 87.393312 
L 146.177498 87.396832 
L 146.61278 86.844 
L 147.048063 87.827254 
L 147.918628 87.834436 
L 148.35391 87.082716 
L 148.789192 83.600231 
L 150.09504 83.572678 
L 150.530322 85.427414 
L 150.965605 85.431132 
L 151.400887 83.485887 
L 152.271452 83.493522 
L 152.706734 82.242136 
L 153.142017 82.245837 
L 153.577299 86.361045 
L 154.012582 86.441232 
L 154.447864 84.28552 
L 155.753711 84.296613 
L 156.188994 84.434116 
L 157.494841 84.438379 
L 157.930124 83.751098 
L 158.365406 83.75487 
L 158.800688 83.311729 
L 159.235971 79.601692 
L 160.541818 79.613606 
L 160.977101 79.180713 
L 161.412383 80.189698 
L 161.847665 80.193724 
L 162.282948 78.127792 
L 162.71823 78.131546 
L 163.153513 80.754352 
L 163.588795 80.758147 
L 164.024078 81.487736 
L 164.45936 81.491477 
L 164.894643 83.091829 
L 165.329925 83.095707 
L 165.765207 81.791745 
L 166.635772 81.799266 
L 167.071055 83.348477 
L 167.506337 83.351526 
L 167.94162 81.09708 
L 168.376902 82.795719 
L 168.812184 82.799368 
L 169.247467 85.891025 
L 169.682749 85.894668 
L 170.118032 82.310636 
L 170.988597 82.318351 
L 171.423879 82.683077 
L 171.859162 87.878378 
L 172.729726 87.885262 
L 173.165009 90.273043 
L 173.600291 90.27638 
L 174.035574 90.403361 
L 174.470856 90.406654 
L 174.906139 94.021044 
L 175.341421 94.844309 
L 175.776703 94.847403 
L 176.211986 97.208406 
L 176.647268 97.211504 
L 177.082551 94.196402 
L 177.517833 94.199481 
L 177.953116 93.443513 
L 178.388398 95.698338 
L 179.694245 95.70773 
L 180.129528 96.459193 
L 180.56481 98.119425 
L 181.000093 98.122402 
L 181.435375 99.510069 
L 181.870658 99.846983 
L 182.741222 99.852861 
L 183.176505 100.801124 
L 184.04707 100.806832 
L 184.482352 98.079553 
L 185.352917 99.241127 
L 186.658764 99.250097 
L 187.094047 99.824536 
L 187.529329 99.043402 
L 187.964612 99.046427 
L 188.399894 98.43373 
L 188.835177 98.436786 
L 189.270459 95.422936 
L 189.705741 95.426108 
L 190.141024 96.421341 
L 190.576306 96.424433 
L 191.011589 95.790736 
L 191.882154 95.797033 
L 192.317436 97.212946 
L 192.752718 94.054583 
L 193.623283 94.060712 
L 194.058566 96.534308 
L 194.493848 96.537512 
L 194.929131 95.977657 
L 195.364413 100.361117 
L 195.799695 100.364018 
L 196.234978 102.440662 
L 196.67026 102.443425 
L 197.105543 103.952694 
L 197.540825 103.955367 
L 197.976108 106.238127 
L 198.41139 105.771808 
L 200.15252 105.890407 
L 201.023085 105.209615 
L 202.328932 105.217643 
L 202.764214 105.534235 
L 203.199497 105.536908 
L 203.634779 105.143986 
L 204.940627 105.256069 
L 205.375909 102.917206 
L 205.811192 102.80088 
L 206.681756 102.806267 
L 207.117039 105.23232 
L 207.552321 105.235023 
L 207.987604 105.072894 
L 208.422886 105.619804 
L 208.858169 103.689016 
L 210.164016 103.697341 
L 210.599298 104.270775 
L 211.034581 105.463227 
L 211.469863 107.085102 
L 212.340428 107.090305 
L 212.775711 104.560029 
L 213.646275 104.563858 
L 214.081558 105.171841 
L 214.51684 105.174559 
L 214.952123 104.890332 
L 215.387405 105.350006 
L 215.822688 105.516809 
L 217.128535 105.524787 
L 217.563817 106.168025 
L 217.9991 106.529775 
L 218.434382 106.532384 
L 218.869665 106.203412 
L 219.304947 106.206025 
L 219.740229 106.666298 
L 220.610794 106.671548 
L 221.046077 105.503887 
L 221.481359 102.775603 
L 222.351924 102.781067 
L 222.787207 103.745248 
L 223.222489 103.747975 
L 223.657771 104.452988 
L 224.093054 106.208363 
L 224.528336 106.211017 
L 224.963619 106.620812 
L 225.398901 106.6235 
L 225.834184 105.385485 
L 226.704748 105.390728 
L 227.140031 109.003169 
L 228.010596 103.982117 
L 229.316443 103.990197 
L 229.751726 101.93464 
L 230.187008 103.675523 
L 231.492855 103.57703 
L 231.928138 104.495536 
L 232.798703 104.500986 
L 233.233985 101.876844 
L 233.669267 101.879589 
L 234.10455 102.658215 
L 234.539832 102.660815 
L 234.975115 105.181793 
L 235.410397 108.867672 
L 236.280962 108.872462 
L 236.716244 112.400602 
L 237.586809 115.540645 
L 238.892657 115.547216 
L 239.327939 113.408916 
L 239.763222 114.158125 
L 240.198504 111.00513 
L 241.069069 111.009957 
L 241.939634 106.359074 
L 242.374916 106.361682 
L 242.810199 103.819942 
L 243.680763 103.825198 
L 244.116046 101.227113 
L 244.551328 101.229597 
L 244.986611 100.976322 
L 245.421893 100.979091 
L 245.857176 104.33315 
L 246.292458 104.335795 
L 246.727741 104.072696 
L 247.163023 104.075492 
L 247.598305 103.277085 
L 248.033588 103.279836 
L 248.46887 100.61451 
L 248.904153 100.617292 
L 249.339435 100.48831 
L 250.21 100.494228 
L 250.645282 99.351159 
L 251.080565 99.354164 
L 251.515847 98.439223 
L 251.95113 98.442282 
L 252.386412 98.674749 
L 252.821695 98.677855 
L 253.256977 96.552343 
L 253.692259 96.700588 
L 254.127542 96.703676 
L 254.562824 97.300624 
L 255.433389 97.306815 
L 255.868672 94.279901 
L 256.303954 94.283064 
L 256.739237 94.734746 
L 257.174519 94.737818 
L 257.609801 97.70208 
L 258.045084 97.705074 
L 258.480366 94.778638 
L 258.915649 94.78181 
L 259.350931 95.886478 
L 259.786214 95.131588 
L 260.656778 95.137824 
L 261.092061 96.975251 
L 261.527343 99.315928 
L 262.397908 99.250897 
L 263.268473 99.25675 
L 263.703756 100.46034 
L 264.139038 102.174562 
L 265.009603 102.180253 
L 265.444885 102.877035 
L 265.880168 102.879892 
L 266.31545 102.7218 
L 266.750733 102.72467 
L 267.186015 101.874216 
L 267.621297 102.022252 
L 268.927145 101.975894 
L 269.362427 106.037107 
L 269.79771 106.039795 
L 270.232992 106.598957 
L 270.668274 106.601582 
L 271.103557 104.015164 
L 271.538839 104.017781 
L 271.974122 103.685152 
L 274.150534 103.643559 
L 274.585816 98.94796 
L 275.456381 98.954153 
L 275.891664 96.263639 
L 276.326946 96.266802 
L 276.762229 93.194152 
L 277.197511 93.197493 
L 277.632793 92.816031 
L 278.068076 92.085558 
L 278.938641 92.092228 
L 279.373923 93.222798 
L 279.809206 89.940753 
L 280.244488 89.944225 
L 280.679771 89.49114 
L 281.115053 89.494643 
L 281.550335 86.067847 
L 281.985618 80.32109 
L 283.291465 80.332721 
L 284.16203 82.972843 
L 284.597312 82.976668 
L 285.032595 81.789533 
L 285.90316 81.797303 
L 286.338442 80.900049 
L 286.773725 78.876796 
L 287.209007 78.358096 
L 287.644289 78.362107 
L 288.079572 74.435377 
L 289.820702 74.42888 
L 290.255984 74.938125 
L 291.126549 74.946265 
L 291.561831 70.823653 
L 291.997114 76.504007 
L 292.432396 77.870556 
L 293.738244 77.882626 
L 294.173526 78.117325 
L 294.608808 74.616475 
L 295.044091 75.801418 
L 295.479373 75.805557 
L 295.914656 71.70621 
L 297.220503 71.71872 
L 297.655786 67.662706 
L 298.091068 73.749696 
L 298.52635 73.753989 
L 298.961633 69.778629 
L 299.832198 69.787711 
L 300.26748 68.543093 
L 301.138045 75.243329 
L 302.443892 75.255827 
L 302.879175 71.492937 
L 303.314457 74.262833 
L 303.74974 72.637581 
L 305.055587 72.650463 
L 305.490869 72.072743 
L 305.926152 70.839498 
L 306.796717 70.847782 
L 307.231999 76.679503 
L 307.667282 76.683414 
L 308.102564 75.855871 
L 308.537846 79.303659 
L 308.973129 79.307584 
L 309.408411 79.463561 
L 310.278976 79.471429 
L 310.714259 84.776727 
L 311.149541 86.761806 
L 311.584823 87.741906 
L 312.890671 87.752606 
L 313.325953 84.23084 
L 313.761236 84.234527 
L 314.196518 84.428781 
L 314.631801 85.084246 
L 315.502365 85.091301 
L 315.937648 85.33516 
L 316.37293 90.645151 
L 316.808213 87.327165 
L 318.11406 87.337854 
L 318.549342 92.17944 
L 318.984625 94.432575 
L 319.419907 93.627102 
L 320.725755 93.636888 
L 321.161037 90.451245 
L 321.59632 90.454604 
L 322.031602 90.111823 
L 322.466884 91.855357 
L 322.902167 91.858601 
L 323.337449 88.691347 
L 323.772732 88.694613 
L 324.208014 90.987109 
L 325.078579 90.993838 
L 325.513861 87.815375 
L 325.949144 88.438421 
L 326.384426 88.441841 
L 326.819709 93.015511 
L 327.254991 93.018766 
L 327.690274 89.825465 
L 328.560838 89.832 
L 328.996121 93.617187 
L 329.431403 93.620524 
L 330.301968 86.808126 
L 331.172533 86.81528 
L 331.607816 87.349298 
L 332.47838 80.306672 
L 333.784228 80.318301 
L 334.21951 85.617917 
L 334.654793 85.621307 
L 335.090075 90.11881 
L 335.525357 92.294589 
L 335.96064 92.297838 
L 336.395922 93.516778 
L 337.266487 93.523239 
L 338.137052 95.875866 
L 338.572335 97.783991 
L 339.878182 97.793172 
L 340.313464 97.430221 
L 340.748747 96.549273 
L 341.184029 96.003252 
L 342.489876 96.012785 
L 342.925159 93.959886 
L 343.360441 93.528757 
L 343.795724 93.531926 
L 344.231006 95.26431 
L 345.101571 95.270701 
L 345.536853 95.766949 
L 345.972136 95.510133 
L 346.407418 96.503318 
L 347.713266 96.512792 
L 348.148548 94.950292 
L 348.583831 95.294006 
L 349.019113 92.152413 
L 349.454395 92.155751 
L 349.889678 88.898671 
L 350.760243 88.905666 
L 351.195525 89.594384 
L 351.630808 87.967088 
L 353.371937 87.96742 
L 354.242502 87.109242 
L 355.54835 87.119788 
L 355.983632 88.283225 
L 356.418914 88.28649 
L 356.854197 86.936225 
L 357.289479 84.496488 
L 357.724762 84.500277 
L 358.160044 82.804585 
L 359.030609 82.812192 
L 359.465891 83.114072 
L 359.901174 78.989406 
L 360.336456 78.632692 
L 362.512868 78.691877 
L 362.948151 81.926342 
L 363.383433 81.403501 
L 364.253998 81.411307 
L 364.689281 82.264638 
L 365.124563 82.268385 
L 365.559846 82.775813 
L 365.995128 81.989564 
L 366.43041 78.361287 
L 367.736258 78.373267 
L 368.17154 77.825042 
L 368.606823 74.948427 
L 369.477387 74.95683 
L 369.91267 74.577459 
L 370.347952 74.431752 
L 370.783235 71.938245 
L 372.089082 71.951129 
L 372.524365 71.103999 
L 372.959647 74.588845 
L 373.394929 74.59296 
L 373.830212 76.108223 
L 374.700777 76.116461 
L 375.136059 76.427408 
L 375.571342 72.309411 
L 376.006624 72.313596 
L 376.441906 74.983401 
L 377.312471 74.991777 
L 377.747754 70.937947 
L 378.183036 70.942362 
L 378.618319 71.46606 
L 379.053601 69.572486 
L 379.488883 69.576905 
L 379.924166 65.264912 
L 380.359448 64.919668 
L 381.665296 64.9336 
L 382.100578 65.876521 
L 382.971143 56.773348 
L 384.27699 56.788292 
L 384.712273 60.050469 
L 385.147555 61.446337 
L 386.01812 61.455624 
L 386.453402 64.874106 
L 386.888685 66.369358 
L 387.75925 66.378505 
L 388.194532 67.037819 
L 388.629815 67.042209 
L 389.065097 69.965651 
L 389.50038 72.006661 
L 389.935662 72.010878 
L 390.370944 74.31689 
L 390.806227 70.210674 
L 391.676792 70.219495 
L 392.112074 65.904888 
L 393.853204 66.011095 
L 394.288486 67.140645 
L 394.723769 69.034544 
L 395.159051 64.689821 
L 396.029616 64.69912 
L 396.464898 66.212387 
L 396.900181 66.216811 
L 397.335463 69.86385 
L 397.770746 75.863913 
L 399.076593 75.876315 
L 399.947158 67.794163 
L 400.38244 67.798707 
L 400.817723 63.375371 
L 401.253005 63.379916 
L 401.688288 63.201538 
L 402.558853 63.211168 
L 402.994135 62.01018 
L 403.429417 62.409705 
L 403.8647 63.381552 
L 404.735265 63.391082 
L 405.170547 58.740093 
L 405.60583 56.485253 
L 406.911677 56.500531 
L 407.346959 55.478046 
L 407.782242 55.483132 
L 408.217524 57.283866 
L 408.652807 56.583645 
L 409.088089 56.588703 
L 409.523372 55.729758 
L 410.393936 55.740184 
L 410.829219 54.020906 
L 411.264501 54.026129 
L 411.699784 48.910548 
L 412.135066 50.423225 
L 412.570349 48.136087 
L 413.876196 48.152727 
L 414.311478 42.931434 
L 414.746761 42.937064 
L 415.182043 41.662533 
L 415.617326 39.771361 
L 416.052608 39.777279 
L 416.487891 39.164718 
L 416.923173 39.170654 
L 417.358455 42.305214 
L 417.793738 42.311068 
L 418.22902 40.814626 
L 419.099585 40.826311 
L 419.534868 39.099539 
L 419.97015 39.105418 
L 420.405432 41.473972 
L 420.840715 42.542284 
L 421.275997 42.548114 
L 421.71128 41.413402 
L 422.581845 41.425276 
L 423.017127 41.590324 
L 423.45241 41.59617 
L 423.887692 42.875849 
L 424.322974 40.724488 
L 424.758257 40.730418 
L 425.193539 34.743616 
L 425.628822 34.749898 
L 426.064104 32.193695 
L 426.934669 32.206256 
L 427.369951 32.485853 
L 427.805234 32.492116 
L 428.240516 31.850909 
L 429.111081 31.886292 
L 429.546364 34.148868 
L 429.546364 34.148868 
" style="fill:none;stroke:#1f77b4;stroke-linecap:square;stroke-width:1.5;"/>
   </g>
   <g id="line2d_11">
    <path clip-path="url(#p0261fdcc0f)" d="M 70.873636 128.423518 
L 71.308919 128.423518 
L 71.744201 127.92802 
L 85.237957 127.92802 
L 85.673239 126.978875 
L 87.849651 126.978875 
L 88.284934 125.77729 
L 89.155499 125.77729 
L 89.590781 124.307087 
L 90.896628 124.307087 
L 91.331911 123.674649 
L 91.767193 123.367066 
L 92.637758 123.367066 
L 93.073041 121.635653 
L 94.378888 121.635653 
L 94.81417 121.261624 
L 95.249453 121.261624 
L 95.684735 120.701202 
L 97.861147 120.701202 
L 98.29643 119.257284 
L 99.166995 119.257284 
L 99.602277 117.238878 
L 100.03756 117.238878 
L 100.472842 115.1393 
L 100.908124 114.666399 
L 102.213972 114.666399 
L 102.649254 112.508041 
L 103.084537 112.508041 
L 103.519819 111.031001 
L 103.955102 111.031001 
L 104.390384 110.036169 
L 107.872643 110.036169 
L 108.307926 109.906441 
L 109.178491 109.906441 
L 109.613773 108.567063 
L 110.049056 105.552541 
L 110.484338 105.552541 
L 110.91962 102.90068 
L 112.225468 102.90068 
L 112.66075 100.652372 
L 113.096033 100.652372 
L 113.531315 97.85991 
L 114.40188 97.85991 
L 114.837162 94.851046 
L 115.272445 94.603689 
L 115.707727 93.293637 
L 117.013575 93.293637 
L 117.448857 90.109705 
L 119.625269 90.109705 
L 120.060552 89.0535 
L 130.072048 89.0535 
L 130.50733 85.517307 
L 130.942613 85.517307 
L 131.377895 82.074536 
L 158.800688 82.074536 
L 159.235971 79.601692 
L 160.541818 79.601692 
L 160.977101 79.180713 
L 161.847665 79.180713 
L 162.282948 78.127792 
L 287.644289 78.127792 
L 288.079572 74.435377 
L 291.126549 74.42888 
L 291.561831 70.823653 
L 297.220503 70.823653 
L 297.655786 67.662706 
L 379.488883 67.662706 
L 379.924166 65.264912 
L 380.359448 64.919668 
L 382.100578 64.919668 
L 382.971143 56.773348 
L 405.170547 56.773348 
L 405.60583 56.485253 
L 406.911677 56.485253 
L 407.346959 55.478046 
L 410.393936 55.478046 
L 410.829219 54.020906 
L 411.264501 54.020906 
L 411.699784 48.910548 
L 412.135066 48.910548 
L 412.570349 48.136087 
L 413.876196 48.136087 
L 414.311478 42.931434 
L 414.746761 42.931434 
L 415.182043 41.662533 
L 415.617326 39.771361 
L 416.052608 39.771361 
L 416.487891 39.164718 
L 424.758257 39.099539 
L 425.193539 34.743616 
L 425.628822 34.743616 
L 426.064104 32.193695 
L 427.805234 32.193695 
L 428.240516 31.850909 
L 429.546364 31.850909 
L 429.546364 31.850909 
" style="fill:none;stroke:#ff8d29;stroke-linecap:square;stroke-width:1.5;"/>
   </g>
   <g id="line2d_12">
    <path clip-path="url(#p0261fdcc0f)" d="M 70.873636 128.423518 
L 71.308919 128.423518 
L 71.744201 127.92802 
L 75.661743 127.966029 
L 76.097026 128.109254 
L 77.402873 128.109254 
L 77.838155 128.438206 
L 80.44985 128.438206 
L 80.885132 128.967824 
L 82.626262 128.967824 
L 83.061545 129.877974 
L 83.496827 129.877974 
L 83.932109 128.408464 
L 85.237957 128.408464 
L 85.673239 126.978875 
L 86.979086 126.978875 
L 87.414369 127.326064 
L 87.849651 127.326064 
L 88.284934 125.77729 
L 89.155499 125.77729 
L 89.590781 124.307087 
L 90.896628 124.307087 
L 91.331911 123.674649 
L 91.767193 123.367066 
L 92.637758 123.367066 
L 93.073041 121.635653 
L 94.378888 121.635653 
L 94.81417 121.261624 
L 95.249453 121.261624 
L 95.684735 120.701202 
L 97.425865 120.701202 
L 97.861147 121.117303 
L 98.29643 119.257284 
L 99.166995 119.257284 
L 99.602277 117.238878 
L 100.03756 117.238878 
L 100.472842 115.1393 
L 100.908124 114.666399 
L 102.213972 114.666399 
L 102.649254 112.508041 
L 103.084537 112.508041 
L 103.519819 111.031001 
L 103.955102 111.031001 
L 104.390384 110.036169 
L 107.872643 110.036169 
L 108.307926 109.906441 
L 109.178491 109.906441 
L 109.613773 108.567063 
L 110.049056 105.552541 
L 110.484338 105.552541 
L 110.91962 102.90068 
L 112.225468 102.90068 
L 112.66075 100.652372 
L 113.096033 100.652372 
L 113.531315 97.85991 
L 114.40188 97.85991 
L 114.837162 94.851046 
L 115.272445 94.603689 
L 115.707727 93.293637 
L 117.013575 93.293637 
L 117.448857 90.109705 
L 117.884139 90.109705 
L 118.319422 92.301439 
L 119.625269 92.301439 
L 120.060552 89.0535 
L 121.801681 89.0535 
L 122.236964 90.569779 
L 123.107529 90.569779 
L 123.542811 89.978819 
L 125.283941 89.978819 
L 125.719223 92.841847 
L 127.895635 92.841847 
L 128.330918 92.287357 
L 128.7662 89.963631 
L 130.072048 89.963631 
L 130.50733 85.517307 
L 130.942613 85.517307 
L 131.377895 82.074536 
L 133.119025 82.074536 
L 133.554307 83.26106 
L 133.98959 82.954562 
L 140.518826 82.954562 
L 140.954109 88.182072 
L 142.695238 88.182072 
L 143.130521 87.352491 
L 144.001086 87.352491 
L 144.436368 89.430653 
L 145.306933 89.430653 
L 145.742215 87.393312 
L 146.177498 87.393312 
L 146.61278 86.844 
L 147.918628 86.844 
L 148.35391 87.082716 
L 148.789192 83.600231 
L 150.965605 83.569008 
L 151.836169 83.485887 
L 152.271452 83.485887 
L 152.706734 82.242136 
L 154.012582 82.242136 
L 154.447864 84.28552 
L 157.494841 84.395839 
L 157.930124 83.751098 
L 158.365406 83.751098 
L 158.800688 83.311729 
L 159.235971 79.601692 
L 160.541818 79.601692 
L 160.977101 79.180713 
L 161.847665 79.180713 
L 162.282948 78.127792 
L 165.329925 78.127792 
L 165.765207 81.791745 
L 167.506337 81.791745 
L 167.94162 81.09708 
L 169.682749 81.09708 
L 170.118032 82.310636 
L 176.647268 82.310636 
L 177.082551 94.196402 
L 177.517833 94.196402 
L 177.953116 93.443513 
L 184.04707 93.443513 
L 184.482352 98.079553 
L 187.094047 98.079553 
L 187.529329 99.043402 
L 187.964612 99.043402 
L 188.399894 98.43373 
L 188.835177 98.43373 
L 189.270459 95.422936 
L 190.576306 95.422936 
L 191.011589 95.790736 
L 192.317436 95.790736 
L 192.752718 94.054583 
L 194.493848 94.054583 
L 194.929131 95.977657 
L 197.976108 95.977657 
L 198.41139 105.771808 
L 200.15252 105.771808 
L 201.023085 105.209615 
L 204.940627 105.143986 
L 205.375909 102.917206 
L 205.811192 102.80088 
L 207.552321 102.80088 
L 207.987604 105.072894 
L 208.422886 105.072894 
L 208.858169 103.689016 
L 212.340428 103.689016 
L 212.775711 104.560029 
L 214.51684 104.560029 
L 214.952123 104.890332 
L 218.434382 104.890332 
L 218.869665 106.203412 
L 220.610794 106.203412 
L 221.046077 105.503887 
L 221.481359 102.775603 
L 225.398901 102.775603 
L 225.834184 105.385485 
L 227.140031 105.385485 
L 227.575313 106.499621 
L 228.010596 103.982117 
L 229.316443 103.982117 
L 229.751726 101.93464 
L 230.62229 101.93464 
L 231.057573 103.574306 
L 232.798703 103.574306 
L 233.233985 101.876844 
L 238.892657 101.876844 
L 239.327939 113.408916 
L 239.763222 113.408916 
L 240.198504 111.00513 
L 241.069069 111.00513 
L 241.939634 106.359074 
L 242.374916 106.359074 
L 242.810199 103.819942 
L 243.680763 103.819942 
L 244.116046 101.227113 
L 244.551328 101.227113 
L 244.986611 100.976322 
L 246.292458 100.976322 
L 246.727741 104.072696 
L 247.163023 104.072696 
L 247.598305 103.277085 
L 248.033588 103.277085 
L 248.46887 100.61451 
L 248.904153 100.61451 
L 249.339435 100.48831 
L 250.21 100.48831 
L 250.645282 99.351159 
L 251.080565 99.351159 
L 251.515847 98.439223 
L 252.821695 98.439223 
L 253.256977 96.552343 
L 255.433389 96.552343 
L 255.868672 94.279901 
L 258.045084 94.279901 
L 258.480366 94.778638 
L 259.350931 94.778638 
L 259.786214 95.131588 
L 261.527343 95.131588 
L 261.962626 99.247911 
L 265.880168 99.247911 
L 266.31545 102.7218 
L 266.750733 102.7218 
L 267.186015 101.874216 
L 270.668274 101.973004 
L 271.103557 104.015164 
L 271.538839 104.015164 
L 271.974122 103.685152 
L 274.150534 103.643559 
L 274.585816 98.94796 
L 275.456381 98.94796 
L 275.891664 96.263639 
L 276.326946 96.263639 
L 276.762229 93.194152 
L 277.197511 93.194152 
L 277.632793 92.816031 
L 278.068076 92.085558 
L 279.373923 92.085558 
L 279.809206 89.940753 
L 280.244488 89.940753 
L 280.679771 89.49114 
L 281.115053 89.49114 
L 281.550335 86.067847 
L 281.985618 80.32109 
L 284.597312 80.32109 
L 285.032595 81.789533 
L 285.90316 81.789533 
L 286.338442 80.900049 
L 286.773725 78.876796 
L 287.209007 78.358096 
L 287.644289 78.358096 
L 288.079572 74.435377 
L 291.126549 74.42888 
L 291.561831 70.823653 
L 294.173526 70.823653 
L 294.608808 74.616475 
L 295.479373 74.616475 
L 295.914656 71.70621 
L 297.220503 71.70621 
L 297.655786 67.662706 
L 298.52635 67.662706 
L 298.961633 69.778629 
L 299.832198 69.778629 
L 300.26748 68.543093 
L 302.443892 68.543093 
L 302.879175 71.492937 
L 303.314457 71.492937 
L 303.74974 72.637581 
L 305.055587 72.637581 
L 305.490869 72.072743 
L 305.926152 70.839498 
L 307.667282 70.839498 
L 308.102564 75.855871 
L 312.890671 75.855871 
L 313.325953 84.23084 
L 316.37293 84.23084 
L 316.808213 87.327165 
L 318.984625 87.327165 
L 319.419907 93.627102 
L 320.725755 93.627102 
L 321.161037 90.451245 
L 321.59632 90.451245 
L 322.031602 90.111823 
L 322.902167 90.111823 
L 323.337449 88.691347 
L 325.078579 88.691347 
L 325.513861 87.815375 
L 327.254991 87.815375 
L 327.690274 89.825465 
L 329.431403 89.825465 
L 329.866686 90.295678 
L 330.301968 86.808126 
L 331.607816 86.808126 
L 332.47838 80.306672 
L 339.878182 80.306672 
L 340.313464 97.430221 
L 340.748747 96.549273 
L 341.184029 96.003252 
L 342.489876 96.003252 
L 342.925159 93.959886 
L 343.360441 93.528757 
L 345.536853 93.528757 
L 345.972136 95.510133 
L 347.713266 95.510133 
L 348.148548 94.950292 
L 348.583831 94.950292 
L 349.019113 92.152413 
L 349.454395 92.152413 
L 349.889678 88.898671 
L 351.195525 88.898671 
L 351.630808 87.967088 
L 353.371937 87.96742 
L 354.242502 87.109242 
L 356.418914 87.109242 
L 356.854197 86.936225 
L 357.289479 84.496488 
L 357.724762 84.496488 
L 358.160044 82.804585 
L 359.465891 82.804585 
L 359.901174 78.989406 
L 360.336456 78.632692 
L 362.948151 78.632692 
L 363.383433 81.403501 
L 365.559846 81.403501 
L 365.995128 81.989564 
L 366.43041 78.361287 
L 367.736258 78.361287 
L 368.17154 77.825042 
L 368.606823 74.948427 
L 369.477387 74.948427 
L 369.91267 74.577459 
L 370.347952 74.431752 
L 370.783235 71.938245 
L 372.089082 71.938245 
L 372.524365 71.103999 
L 375.136059 71.103999 
L 375.571342 72.309411 
L 377.312471 72.309411 
L 377.747754 70.937947 
L 378.618319 70.937947 
L 379.053601 69.572486 
L 379.488883 69.572486 
L 379.924166 65.264912 
L 380.359448 64.919668 
L 382.100578 64.919668 
L 382.971143 56.773348 
L 390.370944 56.773348 
L 390.806227 70.210674 
L 391.676792 70.210674 
L 392.112074 65.904888 
L 394.723769 65.904888 
L 395.159051 64.689821 
L 399.076593 64.689821 
L 399.511876 71.851363 
L 399.947158 67.794163 
L 400.38244 67.794163 
L 400.817723 63.375371 
L 401.253005 63.375371 
L 401.688288 63.201538 
L 402.558853 63.201538 
L 402.994135 62.01018 
L 404.735265 62.01018 
L 405.170547 58.740093 
L 405.60583 56.485253 
L 406.911677 56.485253 
L 407.346959 55.478046 
L 408.217524 55.478046 
L 408.652807 56.583645 
L 409.088089 56.583645 
L 409.523372 55.729758 
L 410.393936 55.729758 
L 410.829219 54.020906 
L 411.264501 54.020906 
L 411.699784 48.910548 
L 412.135066 48.910548 
L 412.570349 48.136087 
L 413.876196 48.136087 
L 414.311478 42.931434 
L 414.746761 42.931434 
L 415.182043 41.662533 
L 415.617326 39.771361 
L 416.052608 39.771361 
L 416.487891 39.164718 
L 417.793738 39.164718 
L 418.22902 40.814626 
L 419.099585 40.814626 
L 419.534868 39.099539 
L 421.275997 39.099539 
L 421.71128 41.413402 
L 423.887692 41.413402 
L 424.322974 40.724488 
L 424.758257 40.724488 
L 425.193539 34.743616 
L 425.628822 34.743616 
L 426.064104 32.193695 
L 427.805234 32.193695 
L 428.240516 31.850909 
L 429.546364 31.850909 
L 429.546364 31.850909 
" style="fill:none;stroke:#da3f40;stroke-linecap:square;stroke-width:1.5;"/>
   </g>
   <g id="patch_3">
    <path d="M 52.94 136.24 
L 52.94 26.88 
" style="fill:none;stroke:#000000;stroke-linecap:square;stroke-linejoin:miter;stroke-width:0.8;"/>
   </g>
   <g id="patch_4">
    <path d="M 447.48 136.24 
L 447.48 26.88 
" style="fill:none;stroke:#000000;stroke-linecap:square;stroke-linejoin:miter;stroke-width:0.8;"/>
   </g>
   <g id="patch_5">
    <path d="M 52.94 136.24 
L 447.48 136.24 
" style="fill:none;stroke:#000000;stroke-linecap:square;stroke-linejoin:miter;stroke-width:0.8;"/>
   </g>
   <g id="patch_6">
    <path d="M 52.94 26.88 
L 447.48 26.88 
" style="fill:none;stroke:#000000;stroke-linecap:square;stroke-linejoin:miter;stroke-width:0.8;"/>
   </g>
   <g id="text_12">
    <!-- [gen port] trade_history Analsis_cumulative -->
    <defs>
     <path d="M 45.40625 27.984375 
Q 45.40625 37.75 41.375 43.109375 
Q 37.359375 48.484375 30.078125 48.484375 
Q 22.859375 48.484375 18.828125 43.109375 
Q 14.796875 37.75 14.796875 27.984375 
Q 14.796875 18.265625 18.828125 12.890625 
Q 22.859375 7.515625 30.078125 7.515625 
Q 37.359375 7.515625 41.375 12.890625 
Q 45.40625 18.265625 45.40625 27.984375 
z
M 54.390625 6.78125 
Q 54.390625 -7.171875 48.1875 -13.984375 
Q 42 -20.796875 29.203125 -20.796875 
Q 24.46875 -20.796875 20.265625 -20.09375 
Q 16.0625 -19.390625 12.109375 -17.921875 
L 12.109375 -9.1875 
Q 16.0625 -11.328125 19.921875 -12.34375 
Q 23.78125 -13.375 27.78125 -13.375 
Q 36.625 -13.375 41.015625 -8.765625 
Q 45.40625 -4.15625 45.40625 5.171875 
L 45.40625 9.625 
Q 42.625 4.78125 38.28125 2.390625 
Q 33.9375 0 27.875 0 
Q 17.828125 0 11.671875 7.65625 
Q 5.515625 15.328125 5.515625 27.984375 
Q 5.515625 40.671875 11.671875 48.328125 
Q 17.828125 56 27.875 56 
Q 33.9375 56 38.28125 53.609375 
Q 42.625 51.21875 45.40625 46.390625 
L 45.40625 54.6875 
L 54.390625 54.6875 
z
" id="DejaVuSans-103"/>
     <path d="M 18.109375 8.203125 
L 18.109375 -20.796875 
L 9.078125 -20.796875 
L 9.078125 54.6875 
L 18.109375 54.6875 
L 18.109375 46.390625 
Q 20.953125 51.265625 25.265625 53.625 
Q 29.59375 56 35.59375 56 
Q 45.5625 56 51.78125 48.09375 
Q 58.015625 40.1875 58.015625 27.296875 
Q 58.015625 14.40625 51.78125 6.484375 
Q 45.5625 -1.421875 35.59375 -1.421875 
Q 29.59375 -1.421875 25.265625 0.953125 
Q 20.953125 3.328125 18.109375 8.203125 
z
M 48.6875 27.296875 
Q 48.6875 37.203125 44.609375 42.84375 
Q 40.53125 48.484375 33.40625 48.484375 
Q 26.265625 48.484375 22.1875 42.84375 
Q 18.109375 37.203125 18.109375 27.296875 
Q 18.109375 17.390625 22.1875 11.75 
Q 26.265625 6.109375 33.40625 6.109375 
Q 40.53125 6.109375 44.609375 11.75 
Q 48.6875 17.390625 48.6875 27.296875 
z
" id="DejaVuSans-112"/>
     <path d="M 30.609375 48.390625 
Q 23.390625 48.390625 19.1875 42.75 
Q 14.984375 37.109375 14.984375 27.296875 
Q 14.984375 17.484375 19.15625 11.84375 
Q 23.34375 6.203125 30.609375 6.203125 
Q 37.796875 6.203125 41.984375 11.859375 
Q 46.1875 17.53125 46.1875 27.296875 
Q 46.1875 37.015625 41.984375 42.703125 
Q 37.796875 48.390625 30.609375 48.390625 
z
M 30.609375 56 
Q 42.328125 56 49.015625 48.375 
Q 55.71875 40.765625 55.71875 27.296875 
Q 55.71875 13.875 49.015625 6.21875 
Q 42.328125 -1.421875 30.609375 -1.421875 
Q 18.84375 -1.421875 12.171875 6.21875 
Q 5.515625 13.875 5.515625 27.296875 
Q 5.515625 40.765625 12.171875 48.375 
Q 18.84375 56 30.609375 56 
z
" id="DejaVuSans-111"/>
     <path d="M 50.984375 -16.609375 
L 50.984375 -23.578125 
L -0.984375 -23.578125 
L -0.984375 -16.609375 
z
" id="DejaVuSans-95"/>
     <path d="M 54.890625 33.015625 
L 54.890625 0 
L 45.90625 0 
L 45.90625 32.71875 
Q 45.90625 40.484375 42.875 44.328125 
Q 39.84375 48.1875 33.796875 48.1875 
Q 26.515625 48.1875 22.3125 43.546875 
Q 18.109375 38.921875 18.109375 30.90625 
L 18.109375 0 
L 9.078125 0 
L 9.078125 75.984375 
L 18.109375 75.984375 
L 18.109375 46.1875 
Q 21.34375 51.125 25.703125 53.5625 
Q 30.078125 56 35.796875 56 
Q 45.21875 56 50.046875 50.171875 
Q 54.890625 44.34375 54.890625 33.015625 
z
" id="DejaVuSans-104"/>
     <path d="M 44.28125 53.078125 
L 44.28125 44.578125 
Q 40.484375 46.53125 36.375 47.5 
Q 32.28125 48.484375 27.875 48.484375 
Q 21.1875 48.484375 17.84375 46.4375 
Q 14.5 44.390625 14.5 40.28125 
Q 14.5 37.15625 16.890625 35.375 
Q 19.28125 33.59375 26.515625 31.984375 
L 29.59375 31.296875 
Q 39.15625 29.25 43.1875 25.515625 
Q 47.21875 21.78125 47.21875 15.09375 
Q 47.21875 7.46875 41.1875 3.015625 
Q 35.15625 -1.421875 24.609375 -1.421875 
Q 20.21875 -1.421875 15.453125 -0.5625 
Q 10.6875 0.296875 5.421875 2 
L 5.421875 11.28125 
Q 10.40625 8.6875 15.234375 7.390625 
Q 20.0625 6.109375 24.8125 6.109375 
Q 31.15625 6.109375 34.5625 8.28125 
Q 37.984375 10.453125 37.984375 14.40625 
Q 37.984375 18.0625 35.515625 20.015625 
Q 33.0625 21.96875 24.703125 23.78125 
L 21.578125 24.515625 
Q 13.234375 26.265625 9.515625 29.90625 
Q 5.8125 33.546875 5.8125 39.890625 
Q 5.8125 47.609375 11.28125 51.796875 
Q 16.75 56 26.8125 56 
Q 31.78125 56 36.171875 55.265625 
Q 40.578125 54.546875 44.28125 53.078125 
z
" id="DejaVuSans-115"/>
     <path d="M 34.1875 63.1875 
L 20.796875 26.90625 
L 47.609375 26.90625 
z
M 28.609375 72.90625 
L 39.796875 72.90625 
L 67.578125 0 
L 57.328125 0 
L 50.6875 18.703125 
L 17.828125 18.703125 
L 11.1875 0 
L 0.78125 0 
z
" id="DejaVuSans-65"/>
     <path d="M 48.78125 52.59375 
L 48.78125 44.1875 
Q 44.96875 46.296875 41.140625 47.34375 
Q 37.3125 48.390625 33.40625 48.390625 
Q 24.65625 48.390625 19.8125 42.84375 
Q 14.984375 37.3125 14.984375 27.296875 
Q 14.984375 17.28125 19.8125 11.734375 
Q 24.65625 6.203125 33.40625 6.203125 
Q 37.3125 6.203125 41.140625 7.25 
Q 44.96875 8.296875 48.78125 10.40625 
L 48.78125 2.09375 
Q 45.015625 0.34375 40.984375 -0.53125 
Q 36.96875 -1.421875 32.421875 -1.421875 
Q 20.0625 -1.421875 12.78125 6.34375 
Q 5.515625 14.109375 5.515625 27.296875 
Q 5.515625 40.671875 12.859375 48.328125 
Q 20.21875 56 33.015625 56 
Q 37.15625 56 41.109375 55.140625 
Q 45.0625 54.296875 48.78125 52.59375 
z
" id="DejaVuSans-99"/>
    </defs>
    <g transform="translate(119.049062 20.88)scale(0.12 -0.12)">
     <use xlink:href="#DejaVuSans-91"/>
     <use x="39.013672" xlink:href="#DejaVuSans-103"/>
     <use x="102.490234" xlink:href="#DejaVuSans-101"/>
     <use x="164.013672" xlink:href="#DejaVuSans-110"/>
     <use x="227.392578" xlink:href="#DejaVuSans-32"/>
     <use x="259.179688" xlink:href="#DejaVuSans-112"/>
     <use x="322.65625" xlink:href="#DejaVuSans-111"/>
     <use x="383.837891" xlink:href="#DejaVuSans-114"/>
     <use x="424.951172" xlink:href="#DejaVuSans-116"/>
     <use x="464.160156" xlink:href="#DejaVuSans-93"/>
     <use x="503.173828" xlink:href="#DejaVuSans-32"/>
     <use x="534.960938" xlink:href="#DejaVuSans-116"/>
     <use x="574.169922" xlink:href="#DejaVuSans-114"/>
     <use x="615.283203" xlink:href="#DejaVuSans-97"/>
     <use x="676.5625" xlink:href="#DejaVuSans-100"/>
     <use x="740.039062" xlink:href="#DejaVuSans-101"/>
     <use x="801.5625" xlink:href="#DejaVuSans-95"/>
     <use x="851.5625" xlink:href="#DejaVuSans-104"/>
     <use x="914.941406" xlink:href="#DejaVuSans-105"/>
     <use x="942.724609" xlink:href="#DejaVuSans-115"/>
     <use x="994.824219" xlink:href="#DejaVuSans-116"/>
     <use x="1034.033203" xlink:href="#DejaVuSans-111"/>
     <use x="1095.214844" xlink:href="#DejaVuSans-114"/>
     <use x="1136.328125" xlink:href="#DejaVuSans-121"/>
     <use x="1195.507812" xlink:href="#DejaVuSans-32"/>
     <use x="1227.294922" xlink:href="#DejaVuSans-65"/>
     <use x="1295.703125" xlink:href="#DejaVuSans-110"/>
     <use x="1359.082031" xlink:href="#DejaVuSans-97"/>
     <use x="1420.361328" xlink:href="#DejaVuSans-108"/>
     <use x="1448.144531" xlink:href="#DejaVuSans-115"/>
     <use x="1500.244141" xlink:href="#DejaVuSans-105"/>
     <use x="1528.027344" xlink:href="#DejaVuSans-115"/>
     <use x="1580.126953" xlink:href="#DejaVuSans-95"/>
     <use x="1630.126953" xlink:href="#DejaVuSans-99"/>
     <use x="1685.107422" xlink:href="#DejaVuSans-117"/>
     <use x="1748.486328" xlink:href="#DejaVuSans-109"/>
     <use x="1845.898438" xlink:href="#DejaVuSans-117"/>
     <use x="1909.277344" xlink:href="#DejaVuSans-108"/>
     <use x="1937.060547" xlink:href="#DejaVuSans-97"/>
     <use x="1998.339844" xlink:href="#DejaVuSans-116"/>
     <use x="2037.548828" xlink:href="#DejaVuSans-105"/>
     <use x="2065.332031" xlink:href="#DejaVuSans-118"/>
     <use x="2124.511719" xlink:href="#DejaVuSans-101"/>
    </g>
   </g>
   <g id="legend_1">
    <g id="patch_7">
     <path d="M 59.94 78.914375 
L 147.530625 78.914375 
Q 149.530625 78.914375 149.530625 76.914375 
L 149.530625 33.88 
Q 149.530625 31.88 147.530625 31.88 
L 59.94 31.88 
Q 57.94 31.88 57.94 33.88 
L 57.94 76.914375 
Q 57.94 78.914375 59.94 78.914375 
z
" style="fill:#ffffff;opacity:0.8;stroke:#cccccc;stroke-linejoin:miter;"/>
    </g>
    <g id="line2d_13">
     <path d="M 61.94 39.978437 
L 81.94 39.978437 
" style="fill:none;stroke:#1f77b4;stroke-linecap:square;stroke-width:1.5;"/>
    </g>
    <g id="line2d_14"/>
    <g id="text_13">
     <!-- cumulative -->
     <g transform="translate(89.94 43.478437)scale(0.1 -0.1)">
      <use xlink:href="#DejaVuSans-99"/>
      <use x="54.980469" xlink:href="#DejaVuSans-117"/>
      <use x="118.359375" xlink:href="#DejaVuSans-109"/>
      <use x="215.771484" xlink:href="#DejaVuSans-117"/>
      <use x="279.150391" xlink:href="#DejaVuSans-108"/>
      <use x="306.933594" xlink:href="#DejaVuSans-97"/>
      <use x="368.212891" xlink:href="#DejaVuSans-116"/>
      <use x="407.421875" xlink:href="#DejaVuSans-105"/>
      <use x="435.205078" xlink:href="#DejaVuSans-118"/>
      <use x="494.384766" xlink:href="#DejaVuSans-101"/>
     </g>
    </g>
    <g id="line2d_15">
     <path d="M 61.94 54.656563 
L 81.94 54.656563 
" style="fill:none;stroke:#ff8d29;stroke-linecap:square;stroke-width:1.5;"/>
    </g>
    <g id="line2d_16"/>
    <g id="text_14">
     <!-- newHigh -->
     <defs>
      <path d="M 4.203125 54.6875 
L 13.1875 54.6875 
L 24.421875 12.015625 
L 35.59375 54.6875 
L 46.1875 54.6875 
L 57.421875 12.015625 
L 68.609375 54.6875 
L 77.59375 54.6875 
L 63.28125 0 
L 52.6875 0 
L 40.921875 44.828125 
L 29.109375 0 
L 18.5 0 
z
" id="DejaVuSans-119"/>
      <path d="M 9.8125 72.90625 
L 19.671875 72.90625 
L 19.671875 43.015625 
L 55.515625 43.015625 
L 55.515625 72.90625 
L 65.375 72.90625 
L 65.375 0 
L 55.515625 0 
L 55.515625 34.71875 
L 19.671875 34.71875 
L 19.671875 0 
L 9.8125 0 
z
" id="DejaVuSans-72"/>
     </defs>
     <g transform="translate(89.94 58.156563)scale(0.1 -0.1)">
      <use xlink:href="#DejaVuSans-110"/>
      <use x="63.378906" xlink:href="#DejaVuSans-101"/>
      <use x="124.902344" xlink:href="#DejaVuSans-119"/>
      <use x="206.689453" xlink:href="#DejaVuSans-72"/>
      <use x="281.884766" xlink:href="#DejaVuSans-105"/>
      <use x="309.667969" xlink:href="#DejaVuSans-103"/>
      <use x="373.144531" xlink:href="#DejaVuSans-104"/>
     </g>
    </g>
    <g id="line2d_17">
     <path d="M 61.94 69.334687 
L 81.94 69.334687 
" style="fill:none;stroke:#da3f40;stroke-linecap:square;stroke-width:1.5;"/>
    </g>
    <g id="line2d_18"/>
    <g id="text_15">
     <!-- preHigh -->
     <g transform="translate(89.94 72.834687)scale(0.1 -0.1)">
      <use xlink:href="#DejaVuSans-112"/>
      <use x="63.476562" xlink:href="#DejaVuSans-114"/>
      <use x="104.558594" xlink:href="#DejaVuSans-101"/>
      <use x="166.082031" xlink:href="#DejaVuSans-72"/>
      <use x="241.277344" xlink:href="#DejaVuSans-105"/>
      <use x="269.060547" xlink:href="#DejaVuSans-103"/>
      <use x="332.537109" xlink:href="#DejaVuSans-104"/>
     </g>
    </g>
   </g>
  </g>
  <g id="axes_2">
   <g id="patch_8">
    <path d="M 52.94 303.64 
L 447.48 303.64 
L 447.48 194.28 
L 52.94 194.28 
z
" style="fill:#ffffff;"/>
   </g>
   <g id="matplotlib.axis_3">
    <g id="xtick_6">
     <g id="line2d_19">
      <g>
       <use style="stroke:#000000;stroke-width:0.8;" x="70.873636" xlink:href="#m5b5b11bbb9" y="303.64"/>
      </g>
     </g>
     <g id="text_16">
      <!-- 0 -->
      <g transform="translate(67.692386 318.238438)scale(0.1 -0.1)">
       <use xlink:href="#DejaVuSans-48"/>
      </g>
     </g>
    </g>
    <g id="xtick_7">
     <g id="line2d_20">
      <g>
       <use style="stroke:#000000;stroke-width:0.8;" x="157.930124" xlink:href="#m5b5b11bbb9" y="303.64"/>
      </g>
     </g>
     <g id="text_17">
      <!-- 200 -->
      <g transform="translate(148.386374 318.238438)scale(0.1 -0.1)">
       <use xlink:href="#DejaVuSans-50"/>
       <use x="63.623047" xlink:href="#DejaVuSans-48"/>
       <use x="127.246094" xlink:href="#DejaVuSans-48"/>
      </g>
     </g>
    </g>
    <g id="xtick_8">
     <g id="line2d_21">
      <g>
       <use style="stroke:#000000;stroke-width:0.8;" x="244.986611" xlink:href="#m5b5b11bbb9" y="303.64"/>
      </g>
     </g>
     <g id="text_18">
      <!-- 400 -->
      <g transform="translate(235.442861 318.238438)scale(0.1 -0.1)">
       <use xlink:href="#DejaVuSans-52"/>
       <use x="63.623047" xlink:href="#DejaVuSans-48"/>
       <use x="127.246094" xlink:href="#DejaVuSans-48"/>
      </g>
     </g>
    </g>
    <g id="xtick_9">
     <g id="line2d_22">
      <g>
       <use style="stroke:#000000;stroke-width:0.8;" x="332.043098" xlink:href="#m5b5b11bbb9" y="303.64"/>
      </g>
     </g>
     <g id="text_19">
      <!-- 600 -->
      <g transform="translate(322.499348 318.238438)scale(0.1 -0.1)">
       <use xlink:href="#DejaVuSans-54"/>
       <use x="63.623047" xlink:href="#DejaVuSans-48"/>
       <use x="127.246094" xlink:href="#DejaVuSans-48"/>
      </g>
     </g>
    </g>
    <g id="xtick_10">
     <g id="line2d_23">
      <g>
       <use style="stroke:#000000;stroke-width:0.8;" x="419.099585" xlink:href="#m5b5b11bbb9" y="303.64"/>
      </g>
     </g>
     <g id="text_20">
      <!-- 800 -->
      <g transform="translate(409.555835 318.238438)scale(0.1 -0.1)">
       <use xlink:href="#DejaVuSans-56"/>
       <use x="63.623047" xlink:href="#DejaVuSans-48"/>
       <use x="127.246094" xlink:href="#DejaVuSans-48"/>
      </g>
     </g>
    </g>
    <g id="text_21">
     <!-- [day time] -->
     <g transform="translate(224.225625 331.916562)scale(0.1 -0.1)">
      <use xlink:href="#DejaVuSans-91"/>
      <use x="39.013672" xlink:href="#DejaVuSans-100"/>
      <use x="102.490234" xlink:href="#DejaVuSans-97"/>
      <use x="163.769531" xlink:href="#DejaVuSans-121"/>
      <use x="222.949219" xlink:href="#DejaVuSans-32"/>
      <use x="254.736328" xlink:href="#DejaVuSans-116"/>
      <use x="293.945312" xlink:href="#DejaVuSans-105"/>
      <use x="321.728516" xlink:href="#DejaVuSans-109"/>
      <use x="419.140625" xlink:href="#DejaVuSans-101"/>
      <use x="480.664062" xlink:href="#DejaVuSans-93"/>
     </g>
    </g>
   </g>
   <g id="matplotlib.axis_4">
    <g id="ytick_5">
     <g id="line2d_24">
      <g>
       <use style="stroke:#000000;stroke-width:0.8;" x="52.94" xlink:href="#mdeefbb992e" y="294.338018"/>
      </g>
     </g>
     <g id="text_22">
      <!-- 80 -->
      <defs>
       <path d="M 10.59375 35.5 
L 73.1875 35.5 
L 73.1875 27.203125 
L 10.59375 27.203125 
z
" id="DejaVuSans-8722"/>
      </defs>
      <g transform="translate(24.835313 298.137237)scale(0.1 -0.1)">
       <use xlink:href="#DejaVuSans-8722"/>
       <use x="83.789062" xlink:href="#DejaVuSans-56"/>
       <use x="147.412109" xlink:href="#DejaVuSans-48"/>
      </g>
     </g>
    </g>
    <g id="ytick_6">
     <g id="line2d_25">
      <g>
       <use style="stroke:#000000;stroke-width:0.8;" x="52.94" xlink:href="#mdeefbb992e" y="270.566241"/>
      </g>
     </g>
     <g id="text_23">
      <!-- 60 -->
      <g transform="translate(24.835313 274.36546)scale(0.1 -0.1)">
       <use xlink:href="#DejaVuSans-8722"/>
       <use x="83.789062" xlink:href="#DejaVuSans-54"/>
       <use x="147.412109" xlink:href="#DejaVuSans-48"/>
      </g>
     </g>
    </g>
    <g id="ytick_7">
     <g id="line2d_26">
      <g>
       <use style="stroke:#000000;stroke-width:0.8;" x="52.94" xlink:href="#mdeefbb992e" y="246.794464"/>
      </g>
     </g>
     <g id="text_24">
      <!-- 40 -->
      <g transform="translate(24.835313 250.593682)scale(0.1 -0.1)">
       <use xlink:href="#DejaVuSans-8722"/>
       <use x="83.789062" xlink:href="#DejaVuSans-52"/>
       <use x="147.412109" xlink:href="#DejaVuSans-48"/>
      </g>
     </g>
    </g>
    <g id="ytick_8">
     <g id="line2d_27">
      <g>
       <use style="stroke:#000000;stroke-width:0.8;" x="52.94" xlink:href="#mdeefbb992e" y="223.022686"/>
      </g>
     </g>
     <g id="text_25">
      <!-- 20 -->
      <g transform="translate(24.835313 226.821905)scale(0.1 -0.1)">
       <use xlink:href="#DejaVuSans-8722"/>
       <use x="83.789062" xlink:href="#DejaVuSans-50"/>
       <use x="147.412109" xlink:href="#DejaVuSans-48"/>
      </g>
     </g>
    </g>
    <g id="ytick_9">
     <g id="line2d_28">
      <g>
       <use style="stroke:#000000;stroke-width:0.8;" x="52.94" xlink:href="#mdeefbb992e" y="199.250909"/>
      </g>
     </g>
     <g id="text_26">
      <!-- 0 -->
      <g transform="translate(39.5775 203.050128)scale(0.1 -0.1)">
       <use xlink:href="#DejaVuSans-48"/>
      </g>
     </g>
    </g>
    <g id="text_27">
     <!-- [MDD] -->
     <defs>
      <path d="M 9.8125 72.90625 
L 24.515625 72.90625 
L 43.109375 23.296875 
L 61.8125 72.90625 
L 76.515625 72.90625 
L 76.515625 0 
L 66.890625 0 
L 66.890625 64.015625 
L 48.09375 14.015625 
L 38.1875 14.015625 
L 19.390625 64.015625 
L 19.390625 0 
L 9.8125 0 
z
" id="DejaVuSans-77"/>
      <path d="M 19.671875 64.796875 
L 19.671875 8.109375 
L 31.59375 8.109375 
Q 46.6875 8.109375 53.6875 14.9375 
Q 60.6875 21.78125 60.6875 36.53125 
Q 60.6875 51.171875 53.6875 57.984375 
Q 46.6875 64.796875 31.59375 64.796875 
z
M 9.8125 72.90625 
L 30.078125 72.90625 
Q 51.265625 72.90625 61.171875 64.09375 
Q 71.09375 55.28125 71.09375 36.53125 
Q 71.09375 17.671875 61.125 8.828125 
Q 51.171875 0 30.078125 0 
L 9.8125 0 
z
" id="DejaVuSans-68"/>
     </defs>
     <g transform="translate(18.755625 264.875625)rotate(-90)scale(0.1 -0.1)">
      <use xlink:href="#DejaVuSans-91"/>
      <use x="39.013672" xlink:href="#DejaVuSans-77"/>
      <use x="125.292969" xlink:href="#DejaVuSans-68"/>
      <use x="202.294922" xlink:href="#DejaVuSans-68"/>
      <use x="279.296875" xlink:href="#DejaVuSans-93"/>
     </g>
    </g>
   </g>
   <g id="line2d_29">
    <path clip-path="url(#pcce95abc71)" d="M 70.873636 199.25673 
L 72.179484 199.256648 
L 72.614766 199.821129 
L 73.485331 199.832872 
L 73.920613 199.390696 
L 74.791178 199.415067 
L 75.226461 201.591818 
L 75.661743 201.597845 
L 76.097026 199.920418 
L 76.96759 199.931923 
L 77.402873 203.605038 
L 77.838155 201.155099 
L 78.273438 201.160966 
L 78.70872 202.331274 
L 79.144003 202.337196 
L 79.579285 203.409188 
L 80.44985 203.421077 
L 80.885132 203.197453 
L 81.320415 203.203018 
L 81.755697 209.564881 
L 82.19098 212.931021 
L 82.626262 212.937613 
L 83.061545 206.873437 
L 83.496827 206.879686 
L 83.932109 201.042417 
L 84.802674 201.053944 
L 85.237957 201.213429 
L 85.673239 199.250909 
L 86.543804 199.262726 
L 86.979086 200.656193 
L 87.414369 200.503012 
L 87.849651 200.508886 
L 88.284934 199.250909 
L 88.720216 199.256456 
L 89.155499 199.605756 
L 89.590781 199.250909 
L 95.684735 199.250909 
L 96.120018 201.345205 
L 96.5553 204.447653 
L 97.425865 204.4599 
L 97.861147 200.513655 
L 98.29643 199.250909 
L 103.519819 199.250909 
L 103.955102 202.800216 
L 104.390384 199.250909 
L 105.696231 199.268318 
L 106.131514 200.28618 
L 106.566796 200.49621 
L 107.002079 204.318414 
L 107.872643 204.330227 
L 108.307926 199.250909 
L 110.91962 199.250909 
L 111.354903 200.238009 
L 112.225468 200.249842 
L 112.66075 199.250909 
L 117.448857 199.250909 
L 117.884139 203.17673 
L 118.754704 203.088899 
L 119.625269 203.100916 
L 120.060552 199.250909 
L 120.495834 199.256571 
L 120.931117 199.705692 
L 121.366399 201.877553 
L 123.107529 201.84796 
L 123.542811 200.815271 
L 124.413376 200.823071 
L 124.848658 203.473312 
L 125.283941 207.278952 
L 125.719223 205.927445 
L 127.460353 205.948565 
L 127.895635 206.373776 
L 128.330918 204.903743 
L 128.7662 200.789261 
L 130.072048 200.807018 
L 130.50733 199.250909 
L 131.377895 199.250909 
L 131.813177 199.400363 
L 132.683742 199.412224 
L 133.119025 201.121854 
L 133.554307 201.081912 
L 133.98959 200.603552 
L 135.295437 200.621226 
L 135.730719 201.496031 
L 136.166002 202.952693 
L 137.036567 202.964558 
L 137.471849 204.601278 
L 137.907132 204.607229 
L 138.342414 205.702544 
L 138.777696 205.717488 
L 139.212979 211.472387 
L 139.648261 211.47861 
L 140.083544 215.546514 
L 140.518826 215.553132 
L 140.954109 209.319111 
L 141.824673 209.331345 
L 142.259956 210.455903 
L 142.695238 210.462058 
L 143.130521 207.852589 
L 143.565803 213.606054 
L 144.001086 213.612677 
L 144.436368 211.591076 
L 145.306933 211.604039 
L 145.742215 207.92397 
L 146.177498 207.930128 
L 146.61278 206.970062 
L 147.048063 208.687759 
L 147.918628 208.700476 
L 148.35391 207.382845 
L 148.789192 201.615723 
L 150.09504 201.572181 
L 150.530322 204.574693 
L 150.965605 204.580862 
L 151.400887 201.435233 
L 152.271452 201.447267 
L 152.706734 199.506166 
L 153.142017 199.511816 
L 153.577299 206.143097 
L 154.012582 206.279653 
L 154.447864 202.708817 
L 155.753711 202.726672 
L 156.188994 202.948446 
L 157.494841 202.955333 
L 157.930124 201.854688 
L 158.365406 201.860674 
L 158.800688 201.16136 
L 159.235971 199.250909 
L 160.977101 199.250909 
L 161.412383 200.748232 
L 161.847665 200.754282 
L 162.282948 199.250909 
L 162.71823 199.25634 
L 163.153513 203.176372 
L 163.588795 203.182231 
L 164.024078 204.31917 
L 164.45936 204.325055 
L 164.894643 206.894448 
L 165.329925 206.900802 
L 165.765207 204.799156 
L 166.635772 204.811078 
L 167.071055 207.316445 
L 167.506337 207.321477 
L 167.94162 203.707795 
L 168.376902 206.411037 
L 168.812184 206.41697 
L 169.247467 211.654386 
L 169.682749 211.660815 
L 170.118032 205.627052 
L 170.988597 205.639446 
L 171.423879 206.228112 
L 171.859162 215.257218 
L 172.729726 215.270041 
L 173.165009 219.870179 
L 173.600291 219.876828 
L 174.035574 220.130287 
L 174.470856 220.136873 
L 174.906139 227.759439 
L 175.341421 229.613404 
L 175.776703 229.62046 
L 176.211986 235.206293 
L 176.647268 235.213897 
L 177.082551 228.150468 
L 177.517833 228.157353 
L 177.953116 226.486118 
L 178.388398 231.586593 
L 179.694245 231.608583 
L 180.129528 233.388987 
L 180.56481 237.475097 
L 181.000093 237.482619 
L 181.435375 241.069522 
L 181.870658 241.965241 
L 182.741222 241.980956 
L 183.176505 244.55698 
L 184.04707 244.572736 
L 184.482352 237.374409 
L 185.352917 240.361607 
L 186.658764 240.385119 
L 187.094047 241.905252 
L 187.529329 239.84512 
L 187.964612 239.852994 
L 188.399894 238.273348 
L 188.835177 238.281151 
L 189.270459 230.944615 
L 189.705741 230.951978 
L 190.141024 233.298304 
L 190.576306 233.305709 
L 191.011589 231.803207 
L 191.882154 231.817991 
L 192.317436 235.217437 
L 192.752718 227.834068 
L 193.623283 227.847715 
L 194.058566 233.569262 
L 194.493848 233.576961 
L 194.929131 232.243319 
L 195.364413 243.351533 
L 195.799695 243.359423 
L 196.234978 249.210162 
L 196.67026 249.218226 
L 197.105543 253.741556 
L 197.540825 253.749782 
L 197.976108 261.071998 
L 198.41139 259.526382 
L 199.717237 259.552818 
L 200.15252 259.916966 
L 200.587802 258.569401 
L 201.023085 257.697795 
L 202.328932 257.723644 
L 202.764214 258.749073 
L 203.199497 258.757781 
L 203.634779 257.486758 
L 204.070062 257.495488 
L 204.505344 257.839804 
L 204.940627 257.847473 
L 205.375909 250.612534 
L 205.811192 250.268065 
L 206.681756 250.283986 
L 207.117039 257.770921 
L 207.552321 257.779629 
L 207.987604 257.258723 
L 208.422886 259.028264 
L 208.858169 252.933911 
L 210.164016 252.959296 
L 210.599298 254.725956 
L 211.034581 258.518049 
L 211.469863 263.948597 
L 212.340428 263.966553 
L 212.775711 255.630896 
L 213.646275 255.64294 
L 214.081558 257.576267 
L 214.51684 257.585008 
L 214.952123 256.675819 
L 215.387405 258.150923 
L 215.822688 258.692322 
L 217.128535 258.718299 
L 217.563817 260.837942 
L 217.9991 262.052295 
L 218.434382 262.061113 
L 218.869665 260.956016 
L 219.304947 260.964739 
L 219.740229 262.514845 
L 220.610794 262.532678 
L 221.046077 258.650262 
L 221.481359 250.193399 
L 222.351924 250.209532 
L 222.787207 253.105517 
L 223.222489 253.113847 
L 223.657771 255.29492 
L 224.093054 260.972546 
L 224.528336 260.981412 
L 224.963619 262.360473 
L 225.398901 262.369588 
L 225.834184 258.265803 
L 226.704748 258.282793 
L 227.140031 270.814226 
L 228.010596 253.832145 
L 229.316443 253.857041 
L 229.751726 247.746119 
L 230.187008 252.892785 
L 230.62229 252.90122 
L 231.057573 252.5849 
L 231.492855 252.593171 
L 231.928138 255.428315 
L 232.798703 255.445417 
L 233.233985 247.580517 
L 233.669267 247.588372 
L 234.10455 249.847497 
L 234.539832 249.855146 
L 234.975115 257.608268 
L 235.410397 270.312406 
L 236.280962 270.330101 
L 236.716244 284.325156 
L 237.586809 298.637034 
L 238.892657 298.669091 
L 239.327939 288.711907 
L 239.763222 292.0956 
L 240.198504 278.550183 
L 241.069069 278.569593 
L 241.939634 261.477241 
L 242.374916 261.486001 
L 242.810199 253.333994 
L 243.680763 253.350094 
L 244.116046 245.741137 
L 244.551328 245.748093 
L 244.986611 245.041935 
L 245.421893 245.049623 
L 245.857176 254.920307 
L 246.292458 254.928555 
L 246.727741 254.111629 
L 247.163023 254.120271 
L 247.598305 251.687123 
L 248.033588 251.695388 
L 248.46887 244.04356 
L 248.904153 244.051189 
L 249.339435 243.698169 
L 250.21 243.714333 
L 250.645282 240.65048 
L 251.080565 240.658384 
L 251.515847 238.287371 
L 251.95113 238.295182 
L 252.386412 238.890993 
L 252.821695 238.898983 
L 253.256977 233.612608 
L 253.692259 233.969842 
L 254.127542 233.977303 
L 254.562824 235.432968 
L 255.433389 235.44821 
L 255.868672 228.337391 
L 256.303954 228.344483 
L 256.739237 229.363984 
L 257.174519 229.370967 
L 257.609801 236.427541 
L 258.045084 236.435007 
L 258.480366 229.463804 
L 258.915649 229.471024 
L 259.350931 232.028315 
L 259.786214 230.271373 
L 260.656778 230.28572 
L 261.092061 234.636139 
L 261.527343 240.557873 
L 261.962626 240.379389 
L 263.268473 240.40256 
L 263.703756 243.621816 
L 264.139038 248.437093 
L 265.009603 248.453551 
L 265.444885 250.493419 
L 265.880168 250.501885 
L 266.31545 250.034685 
L 266.750733 250.043144 
L 267.186015 247.572992 
L 267.621297 247.997782 
L 268.05658 248.005966 
L 268.491862 247.856226 
L 268.927145 247.864527 
L 269.362427 260.402459 
L 269.79771 260.411376 
L 270.232992 262.286394 
L 270.668274 262.295288 
L 271.103557 253.934011 
L 271.538839 253.942082 
L 271.974122 252.922132 
L 272.844687 252.938385 
L 273.279969 253.244563 
L 273.715252 253.25324 
L 274.150534 252.795436 
L 274.585816 239.597002 
L 275.456381 239.613078 
L 275.891664 232.921647 
L 276.326946 232.929185 
L 276.762229 225.94311 
L 277.197511 225.95036 
L 277.632793 225.127374 
L 278.068076 223.57711 
L 278.938641 223.591115 
L 279.373923 226.005286 
L 279.809206 219.211306 
L 280.244488 219.218157 
L 280.679771 218.329647 
L 281.115053 218.336473 
L 281.550335 211.967123 
L 281.985618 202.511089 
L 283.291465 202.528856 
L 284.16203 206.699753 
L 284.597312 206.706001 
L 285.032595 204.79565 
L 285.90316 204.807966 
L 286.338442 203.401724 
L 286.773725 200.344498 
L 287.209007 199.585037 
L 287.644289 199.590873 
L 288.079572 199.250909 
L 289.820702 199.250909 
L 290.255984 199.960122 
L 291.126549 199.971527 
L 291.561831 199.250909 
L 291.997114 207.30966 
L 292.432396 209.414166 
L 293.738244 209.433064 
L 294.173526 209.801655 
L 294.608808 204.513248 
L 295.044091 206.254162 
L 295.479373 206.260329 
L 295.914656 200.435179 
L 297.220503 200.452135 
L 297.655786 199.250909 
L 298.091068 207.611691 
L 298.52635 207.618002 
L 298.961633 202.029714 
L 299.832198 202.041922 
L 300.26748 200.391534 
L 301.138045 209.84615 
L 302.443892 209.865178 
L 302.879175 204.378204 
L 303.314457 208.370588 
L 303.74974 205.99744 
L 305.055587 206.015904 
L 305.490869 205.193157 
L 305.926152 203.472418 
L 306.796717 203.483819 
L 307.231999 212.069942 
L 307.667282 212.076103 
L 308.102564 210.785367 
L 308.537846 216.336956 
L 308.973129 216.343546 
L 309.408411 216.605921 
L 310.278976 216.619183 
L 310.714259 226.19081 
L 311.149541 230.127348 
L 311.584823 232.150393 
L 312.890671 232.172782 
L 313.325953 225.144308 
L 313.761236 225.151326 
L 314.196518 225.522035 
L 314.631801 226.787036 
L 315.502365 226.800772 
L 315.937648 227.277139 
L 316.37293 238.47722 
L 316.808213 231.287684 
L 318.11406 231.309795 
L 318.549342 242.038642 
L 318.984625 247.569465 
L 319.419907 245.549312 
L 320.725755 245.573562 
L 321.161037 238.038261 
L 321.59632 238.045844 
L 322.031602 237.275727 
L 322.466884 241.27307 
L 322.902167 241.280698 
L 323.337449 234.162974 
L 323.772732 234.169989 
L 324.208014 239.257322 
L 325.078579 239.272751 
L 325.513861 232.304247 
L 325.949144 233.621636 
L 326.384426 233.62893 
L 326.819709 244.047731 
L 327.254991 244.05565 
L 327.690274 236.638115 
L 328.560838 236.65261 
L 328.996121 245.524749 
L 329.431403 245.533014 
L 330.301968 230.221742 
L 331.172533 230.236333 
L 331.607816 231.333475 
L 332.47838 218.041875 
L 333.784228 218.061892 
L 334.21951 227.833388 
L 334.654793 227.840083 
L 335.090075 237.291348 
L 335.525357 242.312412 
L 335.96064 242.320149 
L 336.395922 245.27641 
L 337.266487 245.292366 
L 338.137052 251.315675 
L 338.572335 256.533991 
L 339.878182 256.559869 
L 340.313464 255.542581 
L 340.748747 253.121623 
L 341.184029 251.654399 
L 342.489876 251.679803 
L 342.925159 246.377996 
L 343.360441 245.305998 
L 343.795724 245.313826 
L 344.231006 249.708016 
L 345.101571 249.724659 
L 345.536853 251.027123 
L 345.972136 250.350587 
L 346.407418 252.997169 
L 347.713266 253.02281 
L 348.148548 248.894218 
L 348.583831 249.785381 
L 349.019113 241.974518 
L 349.454395 241.982435 
L 349.889678 234.609573 
L 350.760243 234.624686 
L 351.195525 236.127354 
L 351.630808 232.622944 
L 353.371937 232.623642 
L 354.242502 230.838298 
L 355.54835 230.859983 
L 355.983632 233.291352 
L 356.418914 233.298287 
L 356.854197 230.483416 
L 357.289479 225.65169 
L 357.724762 225.658952 
L 358.160044 222.479675 
L 359.030609 222.493628 
L 359.465891 223.049514 
L 359.901174 215.811445 
L 360.336456 215.21983 
L 362.512868 215.317632 
L 362.948151 220.887134 
L 363.383433 219.955894 
L 364.253998 219.969705 
L 364.689281 221.496329 
L 365.124563 221.503108 
L 365.559846 222.426931 
L 365.995128 221.000583 
L 366.43041 214.773154 
L 367.736258 214.792808 
L 368.17154 213.899248 
L 368.606823 209.398782 
L 369.477387 209.411487 
L 369.91267 208.840395 
L 370.347952 208.622394 
L 370.783235 205.003159 
L 372.089082 205.021335 
L 372.524365 203.837466 
L 372.959647 208.857461 
L 373.394929 208.86363 
L 373.830212 211.176276 
L 374.700777 211.189076 
L 375.136059 211.674083 
L 375.571342 205.528897 
L 376.006624 205.534849 
L 376.441906 209.451676 
L 377.312471 209.464351 
L 377.747754 203.608038 
L 378.183036 203.614128 
L 378.618319 204.340685 
L 379.053601 201.753291 
L 379.488883 201.759203 
L 379.924166 199.250909 
L 381.665296 199.268276 
L 382.100578 200.455588 
L 382.535861 199.250909 
L 384.27699 199.268072 
L 384.712273 203.136991 
L 385.147555 204.870502 
L 386.01812 204.882198 
L 386.453402 209.342619 
L 386.888685 211.395697 
L 387.75925 211.408457 
L 388.194532 212.334835 
L 388.629815 212.341047 
L 389.065097 216.612007 
L 389.50038 219.761478 
L 389.935662 219.768137 
L 390.370944 223.50682 
L 390.806227 216.982562 
L 391.676792 216.99594 
L 392.112074 210.750984 
L 392.547357 210.757371 
L 392.982639 210.8854 
L 393.853204 210.897845 
L 394.288486 212.480493 
L 394.723769 215.222019 
L 395.159051 209.09403 
L 396.029616 209.10655 
L 396.464898 211.1771 
L 396.900181 211.183251 
L 397.335463 216.458642 
L 397.770746 226.129446 
L 399.076593 226.150858 
L 399.947158 213.413811 
L 400.38244 213.420347 
L 400.817723 207.348337 
L 401.253005 207.354292 
L 401.688288 207.121012 
L 402.558853 207.133584 
L 402.994135 205.584694 
L 403.429417 206.095734 
L 403.8647 207.356435 
L 404.735265 207.368923 
L 405.170547 201.553023 
L 405.60583 199.250909 
L 407.782242 199.256678 
L 408.217524 201.334772 
L 408.652807 200.518123 
L 409.088089 200.523982 
L 409.523372 199.53706 
L 410.393936 199.548942 
L 410.829219 199.250909 
L 411.699784 199.250909 
L 412.135066 200.887484 
L 412.570349 199.250909 
L 416.923173 199.256734 
L 417.358455 202.414838 
L 417.793738 202.420892 
L 418.22902 200.892389 
L 419.099585 200.904176 
L 419.534868 199.250909 
L 419.97015 199.256676 
L 420.405432 201.626322 
L 420.840715 202.726326 
L 421.275997 202.732383 
L 421.71128 201.564548 
L 422.581845 201.576653 
L 423.017127 201.745165 
L 423.45241 201.751142 
L 423.887692 203.073887 
L 424.322974 200.866338 
L 424.758257 200.872314 
L 425.193539 199.250909 
L 426.934669 199.262566 
L 427.369951 199.522632 
L 427.805234 199.52847 
L 428.240516 199.250909 
L 429.111081 199.283663 
L 429.546364 201.41631 
L 429.546364 201.41631 
" style="fill:none;stroke:#ff8d29;stroke-linecap:square;stroke-width:1.5;"/>
   </g>
   <g id="line2d_30">
    <path clip-path="url(#pcce95abc71)" d="M 70.873636 199.25673 
L 72.179484 199.256648 
L 72.614766 199.821129 
L 73.485331 199.832872 
L 73.920613 199.250909 
L 74.791178 199.275252 
L 75.226461 201.449445 
L 75.661743 201.455466 
L 76.097026 199.250909 
L 76.96759 199.262349 
L 77.402873 202.91489 
L 77.838155 199.250909 
L 78.273438 199.256684 
L 78.70872 200.408538 
L 79.144003 200.414367 
L 79.579285 201.469456 
L 80.44985 201.481157 
L 80.885132 199.250909 
L 81.320415 199.256295 
L 81.755697 205.41371 
L 82.19098 208.671674 
L 82.626262 208.678054 
L 83.061545 199.250909 
L 84.802674 199.262266 
L 85.237957 199.419382 
L 85.673239 199.250909 
L 86.543804 199.262726 
L 86.979086 200.656193 
L 87.414369 199.250909 
L 88.720216 199.256456 
L 89.155499 199.605756 
L 89.590781 199.250909 
L 95.684735 199.250909 
L 96.120018 201.345205 
L 96.5553 204.447653 
L 97.425865 204.4599 
L 97.861147 199.250909 
L 103.519819 199.250909 
L 103.955102 202.800216 
L 104.390384 199.250909 
L 105.696231 199.268318 
L 106.131514 200.28618 
L 106.566796 200.49621 
L 107.002079 204.318414 
L 107.872643 204.330227 
L 108.307926 199.250909 
L 110.91962 199.250909 
L 111.354903 200.238009 
L 112.225468 200.249842 
L 112.66075 199.250909 
L 117.448857 199.250909 
L 117.884139 203.17673 
L 118.319422 199.250909 
L 120.495834 199.256571 
L 120.931117 199.705692 
L 121.366399 201.877553 
L 121.801681 201.883508 
L 122.236964 199.250909 
L 124.413376 199.258608 
L 124.848658 201.874421 
L 125.283941 205.630624 
L 125.719223 199.250909 
L 127.460353 199.270907 
L 127.895635 199.673502 
L 128.330918 199.250909 
L 131.377895 199.250909 
L 131.813177 199.400363 
L 132.683742 199.412224 
L 133.119025 201.121854 
L 133.554307 199.250909 
L 135.295437 199.268384 
L 135.730719 200.133346 
L 136.166002 201.573617 
L 137.036567 201.585349 
L 137.471849 203.203652 
L 137.907132 203.209536 
L 138.342414 204.292526 
L 138.777696 204.307302 
L 139.212979 209.997446 
L 139.648261 210.003599 
L 140.083544 214.02573 
L 140.518826 214.032274 
L 140.954109 199.250909 
L 141.824673 199.262187 
L 142.259956 200.298926 
L 142.695238 200.304601 
L 143.130521 199.250909 
L 143.565803 204.616102 
L 144.001086 204.622278 
L 144.436368 199.250909 
L 146.61278 199.250909 
L 147.048063 200.863855 
L 147.918628 200.875797 
L 148.35391 199.250909 
L 150.09504 199.256595 
L 150.530322 202.201733 
L 150.965605 202.207784 
L 151.400887 199.250909 
L 153.142017 199.256547 
L 153.577299 205.873617 
L 154.012582 206.009881 
L 154.447864 199.250909 
L 155.753711 199.26826 
L 156.188994 199.483763 
L 156.624276 199.489703 
L 157.059559 199.250909 
L 157.494841 199.317574 
L 158.365406 199.256767 
L 160.977101 199.250909 
L 161.412383 200.748232 
L 161.847665 200.754282 
L 162.282948 199.250909 
L 162.71823 199.25634 
L 163.153513 203.176372 
L 163.588795 203.182231 
L 164.024078 204.31917 
L 164.45936 204.325055 
L 164.894643 206.894448 
L 165.329925 206.900802 
L 165.765207 199.250909 
L 166.635772 199.262299 
L 167.071055 201.655934 
L 167.506337 201.660741 
L 167.94162 199.250909 
L 168.376902 201.85645 
L 168.812184 201.862169 
L 169.247467 206.910294 
L 169.682749 206.91649 
L 170.118032 199.250909 
L 170.988597 199.262671 
L 171.423879 199.821367 
L 171.859162 208.39077 
L 172.729726 208.40294 
L 173.165009 212.76887 
L 173.600291 212.77518 
L 174.035574 213.015735 
L 174.470856 213.021985 
L 174.906139 220.25646 
L 175.341421 222.016033 
L 175.776703 222.02273 
L 176.211986 227.32417 
L 176.647268 227.331387 
L 177.082551 199.250909 
L 177.953116 199.250909 
L 178.388398 203.400541 
L 179.694245 203.418431 
L 180.129528 204.866928 
L 180.56481 208.191296 
L 181.000093 208.197416 
L 181.435375 211.11564 
L 181.870658 211.844377 
L 182.741222 211.857162 
L 183.176505 213.952958 
L 184.04707 213.965776 
L 184.482352 199.250909 
L 185.352917 201.51266 
L 186.658764 201.530462 
L 187.094047 202.681428 
L 187.529329 199.250909 
L 189.705741 199.256722 
L 190.141024 201.109109 
L 190.576306 201.114955 
L 191.011589 199.250909 
L 191.882154 199.262514 
L 192.317436 201.931104 
L 192.752718 199.250909 
L 193.623283 199.261911 
L 194.058566 203.874277 
L 194.493848 203.880484 
L 194.929131 199.250909 
L 195.364413 207.945665 
L 195.799695 207.951841 
L 196.234978 212.531402 
L 196.67026 212.537714 
L 197.105543 216.07827 
L 197.540825 216.084708 
L 197.976108 221.816042 
L 198.41139 199.250909 
L 199.717237 199.26845 
L 200.15252 199.510069 
L 200.587802 199.250909 
L 202.328932 199.268237 
L 202.764214 199.955645 
L 203.199497 199.961482 
L 203.634779 199.250909 
L 204.070062 199.256768 
L 204.505344 199.487859 
L 204.940627 199.493007 
L 205.375909 199.250909 
L 206.681756 199.262049 
L 207.117039 204.500509 
L 207.552321 204.506601 
L 207.987604 199.250909 
L 208.422886 200.440085 
L 208.858169 199.250909 
L 210.164016 199.268396 
L 210.599298 200.485394 
L 211.034581 203.097653 
L 211.469863 206.838593 
L 212.340428 206.850962 
L 212.775711 199.250909 
L 213.646275 199.259078 
L 214.081558 200.570392 
L 214.51684 200.57632 
L 214.952123 199.250909 
L 215.387405 200.245494 
L 215.822688 200.610531 
L 217.128535 200.628046 
L 217.563817 202.05721 
L 217.9991 202.875984 
L 218.434382 202.88193 
L 218.869665 199.250909 
L 219.304947 199.256651 
L 219.740229 200.277031 
L 220.610794 200.28877 
L 221.046077 199.250909 
L 222.351924 199.262201 
L 222.787207 201.289356 
L 223.222489 201.295187 
L 223.657771 202.821912 
L 224.093054 206.79618 
L 224.528336 206.802386 
L 224.963619 207.767712 
L 225.398901 207.774093 
L 225.834184 199.250909 
L 226.704748 199.262262 
L 227.140031 207.636021 
L 227.575313 199.250909 
L 229.751726 199.250909 
L 230.187008 202.906194 
L 230.62229 202.912185 
L 231.057573 199.250909 
L 231.492855 199.256618 
L 231.928138 201.213622 
L 232.798703 201.225427 
L 233.233985 199.250909 
L 233.669267 199.256493 
L 234.10455 200.862567 
L 234.539832 200.868005 
L 234.975115 206.379912 
L 235.410397 215.411632 
L 236.280962 215.424212 
L 236.716244 225.37368 
L 237.586809 235.548387 
L 238.892657 235.571177 
L 239.327939 199.250909 
L 239.763222 201.181507 
L 240.198504 199.250909 
L 245.421893 199.256459 
L 245.857176 206.381993 
L 246.292458 206.387947 
L 246.727741 199.250909 
L 251.95113 199.256788 
L 252.386412 199.705297 
L 252.821695 199.711312 
L 253.256977 199.250909 
L 253.692259 199.528029 
L 254.127542 199.533816 
L 254.562824 200.66303 
L 255.433389 200.674853 
L 255.868672 199.250909 
L 256.303954 199.256606 
L 256.739237 200.075671 
L 257.174519 200.081281 
L 257.609801 205.750512 
L 258.045084 205.75651 
L 258.480366 199.250909 
L 258.915649 199.256666 
L 259.350931 201.295662 
L 259.786214 199.250909 
L 260.656778 199.262287 
L 261.092061 202.712301 
L 261.527343 207.408417 
L 261.962626 199.250909 
L 263.268473 199.268124 
L 263.703756 201.659794 
L 264.139038 205.237192 
L 265.009603 205.24942 
L 265.444885 206.764892 
L 265.880168 206.771182 
L 266.31545 199.250909 
L 267.186015 199.250909 
L 267.621297 199.552917 
L 268.05658 199.558736 
L 268.491862 199.250909 
L 268.927145 199.256801 
L 269.362427 208.155686 
L 269.79771 208.162015 
L 270.232992 209.492822 
L 270.668274 209.499134 
L 271.103557 199.250909 
L 272.844687 199.262107 
L 273.279969 199.473038 
L 273.715252 199.479015 
L 274.150534 199.250909 
L 278.938641 199.262535 
L 279.373923 201.266553 
L 279.809206 199.250909 
L 283.291465 199.268201 
L 284.16203 203.327749 
L 284.597312 203.333831 
L 285.032595 199.250909 
L 289.820702 199.250909 
L 290.255984 199.960122 
L 291.126549 199.971527 
L 291.561831 199.250909 
L 291.997114 207.30966 
L 292.432396 209.414166 
L 293.738244 209.433064 
L 294.173526 209.801655 
L 294.608808 199.250909 
L 295.044091 200.918014 
L 295.479373 200.923919 
L 295.914656 199.250909 
L 297.655786 199.250909 
L 298.091068 207.611691 
L 298.52635 207.618002 
L 298.961633 199.250909 
L 300.26748 199.250909 
L 301.138045 208.615657 
L 302.443892 208.634503 
L 302.879175 199.250909 
L 303.314457 203.078193 
L 303.74974 199.250909 
L 306.796717 199.261919 
L 307.231999 207.553548 
L 307.667282 207.559497 
L 308.102564 199.250909 
L 308.537846 204.31141 
L 308.973129 204.317418 
L 309.408411 204.556584 
L 310.278976 204.568672 
L 310.714259 213.293603 
L 311.149541 216.881919 
L 311.584823 218.726008 
L 312.890671 218.746416 
L 313.325953 199.250909 
L 313.761236 199.256672 
L 314.196518 199.561068 
L 314.631801 200.599785 
L 315.502365 200.611064 
L 315.937648 201.002218 
L 316.37293 210.19882 
L 316.808213 199.250909 
L 318.11406 199.268326 
L 318.549342 207.719323 
L 318.984625 212.075893 
L 319.419907 199.250909 
L 322.031602 199.250909 
L 322.466884 202.279393 
L 322.902167 202.285172 
L 323.337449 199.250909 
L 323.772732 199.256331 
L 324.208014 203.188639 
L 325.078579 203.200565 
L 325.513861 199.250909 
L 325.949144 200.281659 
L 326.384426 200.287366 
L 326.819709 208.439225 
L 327.254991 208.445421 
L 327.690274 199.250909 
L 328.560838 199.261935 
L 328.996121 206.011112 
L 329.431403 206.0174 
L 329.866686 199.250909 
L 331.172533 199.262484 
L 331.607816 200.132839 
L 332.043098 199.250909 
L 333.784228 199.268193 
L 334.21951 207.705755 
L 334.654793 207.711536 
L 335.090075 215.872583 
L 335.525357 220.208207 
L 335.96064 220.214888 
L 336.395922 222.767581 
L 337.266487 222.781359 
L 338.137052 227.98241 
L 338.572335 232.488359 
L 339.878182 232.510704 
L 340.313464 199.250909 
L 343.795724 199.256551 
L 344.231006 202.423587 
L 345.101571 202.435582 
L 345.536853 203.37431 
L 345.972136 199.250909 
L 346.407418 201.101771 
L 347.713266 201.119703 
L 348.148548 199.250909 
L 348.583831 199.879522 
L 349.019113 199.250909 
L 350.760243 199.262557 
L 351.195525 200.420697 
L 351.630808 199.250909 
L 355.54835 199.268041 
L 355.983632 201.188925 
L 356.418914 201.194403 
L 356.854197 199.250909 
L 359.030609 199.262581 
L 359.465891 199.72759 
L 359.901174 199.250909 
L 362.512868 199.337127 
L 362.948151 204.246981 
L 363.383433 199.250909 
L 364.253998 199.262672 
L 364.689281 200.562813 
L 365.124563 200.568586 
L 365.559846 201.355356 
L 365.995128 199.250909 
L 372.524365 199.250909 
L 372.959647 204.084389 
L 373.394929 204.090328 
L 373.830212 206.317049 
L 374.700777 206.329373 
L 375.136059 206.79636 
L 375.571342 199.250909 
L 376.006624 199.256563 
L 376.441906 202.976887 
L 377.312471 202.988926 
L 377.747754 199.250909 
L 378.183036 199.256783 
L 378.618319 199.957649 
L 379.053601 199.250909 
L 381.665296 199.268276 
L 382.100578 200.455588 
L 382.535861 199.250909 
L 384.27699 199.268072 
L 384.712273 203.136991 
L 385.147555 204.870502 
L 386.01812 204.882198 
L 386.453402 209.342619 
L 386.888685 211.395697 
L 387.75925 211.408457 
L 388.194532 212.334835 
L 388.629815 212.341047 
L 389.065097 216.612007 
L 389.50038 219.761478 
L 389.935662 219.768137 
L 390.370944 223.50682 
L 390.806227 199.250909 
L 393.853204 199.384814 
L 394.288486 200.827844 
L 394.723769 203.327516 
L 395.159051 199.250909 
L 396.029616 199.262472 
L 396.464898 201.174666 
L 396.900181 201.180347 
L 397.335463 206.052276 
L 397.770746 214.983458 
L 399.076593 215.003233 
L 399.511876 199.250909 
L 402.994135 199.250909 
L 403.429417 199.736095 
L 403.8647 200.933013 
L 404.735265 200.94487 
L 405.170547 199.250909 
L 407.782242 199.256678 
L 408.217524 201.334772 
L 408.652807 199.250909 
L 411.699784 199.250909 
L 412.135066 200.887484 
L 412.570349 199.250909 
L 416.923173 199.256734 
L 417.358455 202.414838 
L 417.793738 202.420892 
L 418.22902 199.250909 
L 419.97015 199.256676 
L 420.405432 201.626322 
L 420.840715 202.726326 
L 421.275997 202.732383 
L 421.71128 199.250909 
L 422.581845 199.262783 
L 423.017127 199.428078 
L 423.45241 199.43394 
L 423.887692 200.731429 
L 424.322974 199.250909 
L 426.934669 199.262566 
L 427.369951 199.522632 
L 427.805234 199.52847 
L 428.240516 199.250909 
L 429.111081 199.283663 
L 429.546364 201.41631 
L 429.546364 201.41631 
" style="fill:none;stroke:#da3f40;stroke-linecap:square;stroke-width:1.5;"/>
   </g>
   <g id="patch_9">
    <path d="M 52.94 303.64 
L 52.94 194.28 
" style="fill:none;stroke:#000000;stroke-linecap:square;stroke-linejoin:miter;stroke-width:0.8;"/>
   </g>
   <g id="patch_10">
    <path d="M 447.48 303.64 
L 447.48 194.28 
" style="fill:none;stroke:#000000;stroke-linecap:square;stroke-linejoin:miter;stroke-width:0.8;"/>
   </g>
   <g id="patch_11">
    <path d="M 52.94 303.64 
L 447.48 303.64 
" style="fill:none;stroke:#000000;stroke-linecap:square;stroke-linejoin:miter;stroke-width:0.8;"/>
   </g>
   <g id="patch_12">
    <path d="M 52.94 194.28 
L 447.48 194.28 
" style="fill:none;stroke:#000000;stroke-linecap:square;stroke-linejoin:miter;stroke-width:0.8;"/>
   </g>
   <g id="text_28">
    <!-- [gen port] trade_history Analsis_MDD -->
    <g transform="translate(137.986562 188.28)scale(0.12 -0.12)">
     <use xlink:href="#DejaVuSans-91"/>
     <use x="39.013672" xlink:href="#DejaVuSans-103"/>
     <use x="102.490234" xlink:href="#DejaVuSans-101"/>
     <use x="164.013672" xlink:href="#DejaVuSans-110"/>
     <use x="227.392578" xlink:href="#DejaVuSans-32"/>
     <use x="259.179688" xlink:href="#DejaVuSans-112"/>
     <use x="322.65625" xlink:href="#DejaVuSans-111"/>
     <use x="383.837891" xlink:href="#DejaVuSans-114"/>
     <use x="424.951172" xlink:href="#DejaVuSans-116"/>
     <use x="464.160156" xlink:href="#DejaVuSans-93"/>
     <use x="503.173828" xlink:href="#DejaVuSans-32"/>
     <use x="534.960938" xlink:href="#DejaVuSans-116"/>
     <use x="574.169922" xlink:href="#DejaVuSans-114"/>
     <use x="615.283203" xlink:href="#DejaVuSans-97"/>
     <use x="676.5625" xlink:href="#DejaVuSans-100"/>
     <use x="740.039062" xlink:href="#DejaVuSans-101"/>
     <use x="801.5625" xlink:href="#DejaVuSans-95"/>
     <use x="851.5625" xlink:href="#DejaVuSans-104"/>
     <use x="914.941406" xlink:href="#DejaVuSans-105"/>
     <use x="942.724609" xlink:href="#DejaVuSans-115"/>
     <use x="994.824219" xlink:href="#DejaVuSans-116"/>
     <use x="1034.033203" xlink:href="#DejaVuSans-111"/>
     <use x="1095.214844" xlink:href="#DejaVuSans-114"/>
     <use x="1136.328125" xlink:href="#DejaVuSans-121"/>
     <use x="1195.507812" xlink:href="#DejaVuSans-32"/>
     <use x="1227.294922" xlink:href="#DejaVuSans-65"/>
     <use x="1295.703125" xlink:href="#DejaVuSans-110"/>
     <use x="1359.082031" xlink:href="#DejaVuSans-97"/>
     <use x="1420.361328" xlink:href="#DejaVuSans-108"/>
     <use x="1448.144531" xlink:href="#DejaVuSans-115"/>
     <use x="1500.244141" xlink:href="#DejaVuSans-105"/>
     <use x="1528.027344" xlink:href="#DejaVuSans-115"/>
     <use x="1580.126953" xlink:href="#DejaVuSans-95"/>
     <use x="1630.126953" xlink:href="#DejaVuSans-77"/>
     <use x="1716.40625" xlink:href="#DejaVuSans-68"/>
     <use x="1793.408203" xlink:href="#DejaVuSans-68"/>
    </g>
   </g>
   <g id="legend_2">
    <g id="patch_13">
     <path d="M 59.94 298.64 
L 132.5775 298.64 
Q 134.5775 298.64 134.5775 296.64 
L 134.5775 268.28375 
Q 134.5775 266.28375 132.5775 266.28375 
L 59.94 266.28375 
Q 57.94 266.28375 57.94 268.28375 
L 57.94 296.64 
Q 57.94 298.64 59.94 298.64 
z
" style="fill:#ffffff;opacity:0.8;stroke:#cccccc;stroke-linejoin:miter;"/>
    </g>
    <g id="line2d_31">
     <path d="M 61.94 274.382187 
L 81.94 274.382187 
" style="fill:none;stroke:#ff8d29;stroke-linecap:square;stroke-width:1.5;"/>
    </g>
    <g id="line2d_32"/>
    <g id="text_29">
     <!-- MDD -->
     <g transform="translate(89.94 277.882187)scale(0.1 -0.1)">
      <use xlink:href="#DejaVuSans-77"/>
      <use x="86.279297" xlink:href="#DejaVuSans-68"/>
      <use x="163.28125" xlink:href="#DejaVuSans-68"/>
     </g>
    </g>
    <g id="line2d_33">
     <path d="M 61.94 289.060313 
L 81.94 289.060313 
" style="fill:none;stroke:#da3f40;stroke-linecap:square;stroke-width:1.5;"/>
    </g>
    <g id="line2d_34"/>
    <g id="text_30">
     <!-- preMDD -->
     <g transform="translate(89.94 292.560313)scale(0.1 -0.1)">
      <use xlink:href="#DejaVuSans-112"/>
      <use x="63.476562" xlink:href="#DejaVuSans-114"/>
      <use x="104.558594" xlink:href="#DejaVuSans-101"/>
      <use x="166.082031" xlink:href="#DejaVuSans-77"/>
      <use x="252.361328" xlink:href="#DejaVuSans-68"/>
      <use x="329.363281" xlink:href="#DejaVuSans-68"/>
     </g>
    </g>
   </g>
  </g>
 </g>
 <defs>
  <clipPath id="p0261fdcc0f">
   <rect height="109.36" width="394.54" x="52.94" y="26.88"/>
  </clipPath>
  <clipPath id="pcce95abc71">
   <rect height="109.36" width="394.54" x="52.94" y="194.28"/>
  </clipPath>
 </defs>
</svg>
